<svg width="36" height="36" viewBox="0 0 36 36" xmlns="http://www.w3.org/2000/svg"><g fill="none" fill-rule="evenodd"><circle fill="#EEE" cx="18" cy="18" r="18"/><path d="M36 18c0-9.925-8.075-18-18-18S0 8.075 0 18c0 5.242 2.254 9.967 5.842 13.26l-.017.015.584.492c.038.032.08.058.117.09.31.257.632.501.96.737a18.33 18.33 0 0 0 2.866 1.694c.03.015.062.028.093.042a17.838 17.838 0 0 0 5.911 1.59l.178.015c.483.04.971.065 1.466.065.49 0 .974-.026 1.454-.064l.183-.014c.481-.044.956-.107 1.426-.188l.122-.022a17.837 17.837 0 0 0 4.292-1.345l.15-.068a18.09 18.09 0 0 0 1.472-.778 18.01 18.01 0 0 0 1.035-.655c.121-.082.24-.17.36-.256.287-.207.57-.42.843-.643.061-.05.127-.092.186-.142l.6-.5-.018-.015C33.725 28.016 36 23.27 36 18zM1.31 18C1.31 8.796 8.795 1.31 18 1.31S34.69 8.795 34.69 18c0 4.96-2.175 9.418-5.621 12.478a4.905 4.905 0 0 0-.584-.352l-5.543-2.77a1.45 1.45 0 0 1-.806-1.305v-1.936c.128-.158.264-.337.404-.534a13.338 13.338 0 0 0 1.712-3.354 2.375 2.375 0 0 0 1.365-2.152v-2.32c0-.568-.208-1.119-.58-1.551v-3.055c.033-.34.154-2.257-1.233-3.838C22.598 5.933 20.645 5.236 18 5.236c-2.645 0-4.598.697-5.804 2.074-1.387 1.581-1.266 3.499-1.232 3.838v3.055c-.372.433-.58.983-.58 1.55v2.321c0 .72.322 1.393.876 1.846.53 2.077 1.621 3.65 2.025 4.182v1.895a1.46 1.46 0 0 1-.76 1.281l-5.176 2.823a4.73 4.73 0 0 0-.493.312C3.453 27.355 1.31 22.923 1.31 18zM27.79 31.505c-.229.166-.462.327-.698.48-.109.071-.217.142-.327.21-.31.192-.623.374-.944.544l-.214.11c-.737.377-1.5.702-2.283.965l-.083.029c-.41.136-.826.257-1.246.36l-.004.002a16.75 16.75 0 0 1-1.285.263l-.036.006c-.406.066-.816.114-1.227.15-.073.007-.145.011-.219.017-.406.03-.815.05-1.225.05-.415 0-.829-.02-1.24-.051a16.928 16.928 0 0 1-1.45-.169l-.056-.01a16.629 16.629 0 0 1-2.546-.635l-.077-.027c-.412-.14-.82-.295-1.219-.466l-.009-.004a17.08 17.08 0 0 1-1.116-.534l-.143-.074a16.822 16.822 0 0 1-1.269-.756c-.297-.195-.59-.397-.876-.611-.03-.022-.057-.046-.087-.068l.063-.035 5.175-2.823a2.768 2.768 0 0 0 1.444-2.431v-2.358l-.151-.182c-.015-.016-1.43-1.738-1.965-4.069l-.06-.259-.223-.145a1.085 1.085 0 0 1-.503-.91v-2.321c0-.304.13-.588.365-.8l.216-.196v-3.645l-.006-.086c-.002-.016-.195-1.59.914-2.854.946-1.079 2.568-1.627 4.819-1.627 2.242 0 3.86.544 4.808 1.615 1.108 1.25.926 2.854.925 2.867l-.006 3.732.216.195c.235.212.365.496.365.8v2.32c0 .467-.318.89-.773 1.032l-.325.1-.105.324a12.11 12.11 0 0 1-1.634 3.293 8.038 8.038 0 0 1-.482.622l-.162.185v2.42c0 1.056.586 2.005 1.53 2.476l5.542 2.771.105.054c-.07.053-.142.103-.213.154z" fill="#CCC" fill-rule="nonzero"/></g></svg>