<svg height="303.70898" viewBox="0 0 291.13278 303.70898" width="340.13278" xmlns="http://www.w3.org/2000/svg">
                <g fill="none" fill-rule="evenodd">
                    <rect width="300" height="300"></rect>
                    <g fill="#646464" fill-rule="nonzero" transform="translate(126.75 80.625)">
                        <path d="M74.4225,26.05125 L75.15375,25.065 C76.0470104,23.8534792 76.6150621,22.4333499 76.80375,20.94 C76.83375,20.715 76.85625,20.4675 76.87125,20.19 L76.8975,19.69875 L81.2625,19.36875 C81.7574255,19.3309084 82.1947008,19.0322465 82.41,18.585 L83.7825,15.735 C83.9962273,15.2903722 84.3781553,14.9491109 84.8439411,14.7865784 C85.3097269,14.6240459 85.8210526,14.6536129 86.265,14.86875 L88.4625,15.94125 C89.3725173,16.3948662 89.755136,17.491152 89.325,18.4125 L87.12,22.995 C86.466274,24.3440131 85.1457846,25.244801 83.65125,25.36125 L74.4225,26.05125 Z M77.95875,20.74125 C77.95875,20.86125 77.93625,20.9775 77.92125,21.08625 C77.755586,22.3764939 77.3403652,23.6221565 76.69875,24.75375 L83.565,24.2325 C84.6593829,24.1487028 85.6271794,23.4906583 86.1075,22.50375 L88.30875,17.92125 C88.483493,17.5598334 88.3324551,17.1251798 87.97125,16.95 L87.97125,16.95 L85.77375,15.8775 C85.4077556,15.7117882 84.9761841,15.8639131 84.795,16.2225 L83.4225,19.06875 C83.0333917,19.8771647 82.2432765,20.4172435 81.34875,20.48625 L77.95875,20.74125 Z M64.125,11.8425 L68.3925,2.97375 C69.0437605,1.62427998 70.3635551,0.72299163 71.8575,0.6075 L77.0325,0.2325 C78.054518,0.154999521 78.9459304,0.92050625 79.02375,1.9425 L79.2075,4.38 C79.2467609,4.87125651 79.0882549,5.3578557 78.7671823,5.73173634 C78.4461096,6.10561698 77.9890483,6.33582965 77.4975,6.37125 L74.25,6.615 C73.7536699,6.65453751 73.3155093,6.9542565 73.09875,7.4025 L71.1,11.5575 L70.635,11.415 C70.1639631,11.267697 69.6808358,11.1622874 69.19125,11.1 C67.9083007,10.9359319 66.6049634,11.0562793 65.37375,11.4525 L64.125,11.8425 Z M68.05875,9.88875 C68.4838547,9.88821558 68.9085301,9.91577563 69.33,9.97125 C69.7254949,10.0203624 70.117516,10.0942578 70.50375,10.1925 L72.08625,6.89625 C72.4784233,6.08880834 73.2688969,5.54945994 74.16375,5.47875 L77.415,5.235 C77.6086217,5.21997696 77.7881997,5.12816267 77.91375,4.98 C78.0405065,4.83439694 78.1027553,4.64359095 78.08625,4.45125 L78.08625,4.45125 L77.9025,2.01 C77.8861394,1.80844966 77.785345,1.62320593 77.625,1.5 C77.4789098,1.37148039 77.2861991,1.30905299 77.0925,1.3275 L71.9175,1.7025 C70.8234192,1.78757558 69.8568026,2.44721643 69.37875,3.435 L66.20625,10.035 C66.8138698,9.92715989 67.4304752,9.87818308 68.0475,9.88875 L68.05875,9.88875 Z"></path>
                        <path d="M68.085,29.7675167 C67.6574069,29.7679195 67.2302444,29.7403606 66.80625,29.685 C62.1884716,29.0954503 58.5988441,25.3792642 58.1695879,20.7438369 C57.7403317,16.1084097 60.5865069,11.7962465 65.0175,10.36875 C66.403959,9.91856548 67.8732697,9.78277915 69.31875,9.97125 C69.8758521,10.0384272 70.4256422,10.1564187 70.96125,10.32375 C75.2982964,11.637831 78.1947061,15.7224322 78,20.25 L78,20.25 C78,20.565 77.95875,20.83875 77.925,21.09 C77.5308377,24.1867968 75.7027949,26.9177483 72.99,28.4625 C71.497928,29.32059 69.8062168,29.7706783 68.085,29.7675167 L68.085,29.7675167 Z M68.0475,11.0175 C67.1358744,11.0178156 66.2299138,11.1607954 65.3625,11.44125 C63.906969,11.9100831 62.598044,12.7486737 61.56375,13.875 C60.3274014,15.2117708 59.5406007,16.902081 59.31375,18.70875 C58.8909018,22.0223145 60.3779096,25.2901189 63.1540162,27.1480054 C65.9301228,29.0058919 69.5180487,29.1344451 72.42,27.48 C73.4848803,26.869066 74.4128292,26.0457826 75.14625,25.06125 C76.0395104,23.8497292 76.6075621,22.4295999 76.79625,20.93625 C76.82625,20.71125 76.84875,20.4675 76.86375,20.18625 C77.0312637,16.1762024 74.464651,12.5607336 70.62375,11.39625 C70.1499559,11.2497221 69.6644065,11.1443315 69.1725,11.08125 C68.7991424,11.0367726 68.4234972,11.0142339 68.0475,11.01375 L68.0475,11.0175 Z"></path>
                        <polygon points="3.06 18.66 .116 18.66 3.053 17.19"></polygon>
                    </g>
                    <path fill="#646464" fill-rule="nonzero" d="M115.1025 254.03625C114.202474 254.035228 113.307632 253.89999 112.4475 253.635 111.771884 253.426678 111.122583 253.141036 110.5125 252.78375 108.449728 251.574202 106.953106 249.59348 106.35297 247.278773 105.752835 244.964065 106.098529 242.505685 107.31375 240.44625L124.3875 211.4175 124.49625 213.26625C124.682873 216.477443 126.475145 219.378385 129.263376 220.982241 132.051607 222.586097 135.460339 222.676896 138.33 221.22375L140.04375 220.35 122.84625 249.6C121.235425 252.348447 118.288205 254.036855 115.1025 254.03625zM123.59625 214.98375L108.28125 241.01625C107.217831 242.818622 106.91554 244.970144 107.44112 246.995773 107.9667 249.021401 109.276923 250.754532 111.0825 251.8125 111.616387 252.127612 112.185238 252.379316 112.7775 252.5625 116.269159 253.627021 120.034679 252.152476 121.875 249L137.25 222.8625C134.388959 223.771281 131.277475 223.433126 128.678457 221.930947 126.079438 220.428769 124.233228 217.90148 123.5925 214.96875L123.59625 214.98375zM120.435 274.395015C119.688662 274.395015 118.955848 274.195816 118.3125 273.8175L118.09125 273.67875 97.215 259.60125C95.4149198 258.292974 94.9391098 255.812239 96.1273941 253.930788 97.3156784 252.049338 99.760166 251.413001 101.715 252.47625L101.93625 252.615 122.80875 266.69625C123.734996 267.322672 124.374083 268.291749 124.585118 269.389838 124.796154 270.487927 124.56181 271.624864 123.93375 272.55L123.93375 272.55C123.14593 273.707495 121.835158 274.398706 120.435 274.395015zM99.585 253.02C98.2234467 253.018441 97.0205183 253.906176 96.6205891 255.207669 96.2206598 256.509163 96.7175136 257.919215 97.845 258.6825L118.71375 272.7525 118.8825 272.8575C120.290974 273.677999 122.094352 273.266501 123.0075 271.91625 123.959375 270.5003 123.58525 268.58102 122.17125 267.62625L101.30625 253.5375 101.14125 253.4325C100.670093 253.153759 100.132434 253.00736 99.585 253.00874L99.585 253.02z"></path>
                    <path fill="#646464" fill-rule="nonzero" d="M109.2825,258.915 L105.57375,256.41375 L105.5175,256.215 C105.266366,255.330234 105.389747,254.381149 105.85875,253.59 L106.695,252.16875 C107.216374,251.279546 108.115519,250.677354 109.13625,250.53375 L109.41,250.49625 L109.605,250.6875 C110.052217,251.118516 110.548048,251.496052 111.0825,251.8125 C111.615351,252.129622 112.184447,252.381434 112.7775,252.5625 L113.04,252.645 L113.1375,252.9 C113.506662,253.861139 113.416905,254.93822 112.89375,255.825 L112.0575,257.25 C111.511656,258.179983 110.554282,258.793149 109.48125,258.9 L109.2825,258.915 Z M106.55625,255.72 L109.55625,257.74875 C110.195506,257.627046 110.750763,257.234537 111.07875,256.6725 L111.915,255.25125 C112.219505,254.737399 112.307197,254.123558 112.15875,253.545 C111.004761,253.148289 109.942418,252.523382 109.035,251.7075 C108.456515,251.85726 107.961363,252.230985 107.65875,252.74625 L106.8225,254.1675 C106.546637,254.634938 106.451899,255.187356 106.55625,255.72 L106.55625,255.72 Z"></path>
                    <path fill="#0FD2FF" fill-rule="nonzero" d="M158.625,209.823768 C158.394992,209.825617 158.187667,209.685412 158.10375,209.47125 L155.26875,202.44 C155.183146,202.251714 155.207778,202.031638 155.33289,201.866937 C155.458002,201.702235 155.663409,201.619481 155.867756,201.651451 C156.072102,201.683421 156.24242,201.824957 156.31125,202.02 L159.14625,209.05125 C159.261909,209.339125 159.122654,209.666291 158.835,209.7825 C158.768483,209.81022 158.697061,209.82425 158.625,209.823768 L158.625,209.823768 Z"></path>
                    <path fill="#C8C8C8" fill-rule="nonzero" d="M143.5725 209.94C143.528925 209.94553 143.484825 209.94553 143.44125 209.94 143.293493 209.905481 143.165949 209.812732 143.087571 209.682807 143.009192 209.552882 142.986628 209.396803 143.025 209.25L148.66875 185.625 149.48625 185.04 155.48625 199.91625C155.60223 200.205164 155.462039 200.533395 155.173125 200.649375 154.884211 200.765355 154.55598 200.625164 154.44 200.33625L149.34 187.67625 144.12375 209.4975C144.067206 209.756455 143.837556 209.9408 143.5725 209.94zM127.1775 205.83C127.133938 205.835738 127.089812 205.835738 127.04625 205.83 126.900724 205.797092 126.774577 205.706977 126.696263 205.579981 126.61795 205.452986 126.594066 205.299809 126.63 205.155L131.265 185.655C131.337487 185.352624 131.641374 185.166263 131.94375 185.23875 132.246126 185.311237 132.432487 185.615124 132.36 185.9175L127.72125 205.4175C127.654792 205.662584 127.431427 205.832034 127.1775 205.83L127.1775 205.83zM168.28125 189.12C168.053855 189.119884 167.849214 188.981973 167.76375 188.77125L165.71625 183.8475C165.597164 183.559622 165.733997 183.229711 166.021875 183.110625 166.309753 182.991539 166.639664 183.128372 166.75875 183.41625L168.8025 188.34C168.873472 188.514096 168.853407 188.712065 168.748947 188.86838 168.644486 189.024694 168.469253 189.11897 168.28125 189.12L168.28125 189.12z"></path>
                    <path fill="#0FD2FF" fill-rule="nonzero" d="M174.3075 203.625C174.080265 203.625005 173.875037 203.489171 173.78625 203.28L167.76375 188.775C167.652946 188.490082 167.789981 188.168829 168.072321 188.051612 168.354661 187.934395 168.67893 188.064132 168.8025 188.34375L174.825 202.84875C174.886924 202.988187 174.889551 203.146796 174.83228 203.288208 174.775008 203.429619 174.662751 203.5417 174.52125 203.59875 174.452485 203.621763 174.37979 203.63069 174.3075 203.625L174.3075 203.625zM180.0375 242.6475C179.748978 242.647023 179.507602 242.428326 179.47875 242.14125L176.95875 216.0375C176.92872 215.72684 177.156215 215.450656 177.466875 215.420625 177.777535 215.390595 178.053719 215.61809 178.08375 215.92875L180.6 242.0325C180.630538 242.34093 180.405828 242.615948 180.0975 242.6475L180.0375 242.6475zM162.61875 238.095C162.329603 238.092599 162.088714 237.872728 162.06 237.585L160.155 217.8225C160.135574 217.621538 160.224835 217.425478 160.38916 217.308173 160.553485 217.190868 160.767909 217.170141 160.95166 217.253798 161.135411 217.337455 161.260574 217.512788 161.28 217.71375L163.185 237.48C163.213262 237.788363 162.98698 238.061577 162.67875 238.09125L162.61875 238.095z"></path>
                    <path fill="#0082FA" fill-rule="nonzero" d="M172.15875 257.625117C171.747165 257.627198 171.336 257.598366 170.92875 257.53875 166.794408 256.974348 163.594617 253.634692 163.2075 249.48L162.06 237.57C162.031738 237.261637 162.25802 236.988423 162.56625 236.95875 162.715395 236.942025 162.864956 236.986414 162.980827 237.081796 163.096699 237.177178 163.169002 237.315421 163.18125 237.465L164.32875 249.375C164.724668 253.564928 168.345059 256.703041 172.54875 256.5L172.94625 256.47375C173.560182 256.413687 174.165308 256.284107 174.75 256.0875 178.199364 254.902918 180.384041 251.504876 180.03 247.875L179.47875 242.14125C179.459324 241.940288 179.548585 241.744228 179.71291 241.626923 179.877235 241.509618 180.091659 241.488891 180.27541 241.572548 180.459161 241.656205 180.584324 241.831538 180.60375 242.0325L181.155 247.76625C181.554474 251.910731 179.058952 255.788175 175.12125 257.14125 174.776602 257.255999 174.42611 257.352385 174.07125 257.43 173.735104 257.504983 173.394357 257.557598 173.05125 257.5875 172.90125 257.5875 172.755 257.61 172.6125 257.6175L172.15875 257.625117zM166.63125 271.57875C164.507373 271.574155 162.717438 269.992708 162.451194 267.88558 162.184951 265.778452 163.525267 263.801486 165.58125 263.26875L165.8175 263.21625 190.5675 258.4875C191.666057 258.276563 192.803409 258.510963 193.729044 259.139073 194.65468 259.767182 195.292673 260.73748 195.5025 261.83625 195.915269 264.021087 194.564533 266.152103 192.4125 266.71125 192.34125 266.71125 192.24375 266.7525 192.15 266.7675L167.42625 271.5C167.164169 271.550187 166.898083 271.576545 166.63125 271.57875zM191.38125 259.5375C191.183665 259.537633 190.986536 259.556467 190.7925 259.59375L165.85125 264.375C164.251429 264.810141 163.27791 266.427847 163.642566 268.04519 164.007222 269.662534 165.580737 270.70597 167.2125 270.4125L191.93625 265.68C191.995778 265.671484 192.054662 265.658955 192.1125 265.6425 193.70035 265.24248 194.70045 263.673245 194.3925 262.065L194.3925 262.065C194.115835 260.610712 192.846614 259.556959 191.36625 259.5525L191.38125 259.5375z"></path>
                    <path fill="#0082FA" fill-rule="nonzero" d="M171.06375,263.35875 L170.8575,263.175 C170.23151,262.61027 169.839549,261.831699 169.75875,260.9925 L169.60125,259.35 C169.501418,258.324279 169.875701,257.309156 170.6175,256.59375 L170.81625,256.4025 L171.09,256.44 C172.319574,256.608689 173.57155,256.487985 174.74625,256.0875 L175.005,256.00125 L175.23375,256.1475 C176.099681,256.707796 176.661882,257.633286 176.76,258.66 L176.76,258.66 L176.9175,260.29875 C176.975223,260.900395 176.870319,261.506502 176.61375,262.05375 L176.49375,262.31625 L171.06375,263.35875 Z M171.225,257.59125 C170.844969,258.052663 170.664169,258.646336 170.7225,259.24125 L170.87625,260.88375 C170.921109,261.35144 171.11125,261.793354 171.42,262.1475 L175.69875,261.32625 C175.793099,261.031046 175.826275,260.719707 175.79625,260.41125 L175.63875,258.76875 C175.582631,258.174384 175.292595,257.626688 174.8325,257.24625 C174.249118,257.421585 173.650036,257.539643 173.04375,257.59875 C172.43874,257.656312 171.829515,257.6538 171.225,257.59125 L171.225,257.59125 Z"></path>
                    <path fill="#0FD2FF" fill-rule="nonzero" d="M168.49875 222.0375C165.310079 222.03583 162.291401 220.599479 160.27875 218.12625 159.61372 217.312248 159.071699 216.40509 158.67 215.43375 157.019454 211.444788 157.934531 206.854328 160.988478 203.803175 164.042425 200.752022 168.63372 199.841146 172.62117 201.495342 176.60862 203.149539 179.206838 207.042989 179.204121 211.359946 179.2014 215.676903 176.598281 219.567077 172.60875 221.21625 171.30615 221.757823 169.909447 222.036908 168.49875 222.0375L168.49875 222.0375zM168.53625 201.787499C163.84468 201.785091 159.846569 205.191693 159.104149 209.824148 158.361728 214.456604 161.095025 218.942015 165.552378 220.405858 170.009732 221.869702 174.870135 219.878146 177.01875 215.7075L177.01875 215.7075C178.540846 212.748306 178.413042 209.210219 176.681405 206.368558 174.949768 203.526897 171.863951 201.791349 168.53625 201.787499zM155.805 202.792518C155.574992 202.794367 155.367667 202.654162 155.28375 202.44L154.44 200.3475C154.354396 200.159214 154.379028 199.939138 154.50414 199.774437 154.629252 199.609735 154.834659 199.526981 155.039006 199.558951 155.243352 199.590921 155.41367 199.732457 155.4825 199.9275L156.32625 202.02C156.441909 202.307875 156.302654 202.635041 156.015 202.75125 155.948483 202.77897 155.877061 202.793 155.805 202.792518L155.805 202.792518z"></path>
                    <path fill="#646464" fill-rule="nonzero" d="M121.84875 144.42C121.550128 144.42033 121.304029 144.185792 121.29 143.8875L120.84375 135.65625C120.832362 135.455288 120.929051 135.263516 121.097395 135.153173 121.26574 135.04283 121.480163 135.030679 121.659895 135.121298 121.839627 135.211917 121.957362 135.391538 121.96875 135.5925L122.415 143.8425C122.432059 144.151934 122.195623 144.416876 121.88625 144.435L121.84875 144.42zM148.125 134.2125C147.861356 134.2125 147.633423 134.028479 147.576707 133.771007 147.519991 133.513535 147.649712 133.251217 147.88875 133.14L179.9625 118.14C180.745665 117.772167 181.643146 117.731679 182.45625 118.0275 183.080813 118.254164 183.622075 118.664687 184.00875 119.205L196.8375 110.205C193.694279 110.848329 190.433726 109.936327 188.080421 107.755579 185.727117 105.57483 184.569934 102.393025 184.9725 99.21 185.105684 98.1379277 185.414836 97.0951745 185.8875 96.12375L171.70125 106.05 171.55875 103.39875C170.71875 87.91875 160.46625 77.52375 146.05875 77.52375 145.545 77.52375 145.02 77.52375 144.49875 77.565 130.70625 78.315 121.0875 88.275 120.37125 102.46125 120.69375 102.39375 121.01625 102.34125 121.3425 102.30375L143.43 90.54C145.537543 89.4252857 147.974168 89.1007569 150.3 89.625 150.41625 89.6475 150.5325 89.6775 150.6525 89.7075L150.71625 89.7075 150.885 89.75625C150.950955 89.7715149 151.016048 89.7902917 151.08 89.8125L151.455 89.94C151.5825 89.98125 151.7025 90.02625 151.83 90.07125 151.86375 90.07125 151.90125 90.0975 151.935 90.11625L152.12625 90.195C152.28375 90.2625 152.44875 90.3375 152.61 90.42 152.715 90.4675 152.82375 90.52375 152.93625 90.58875L153.24 90.76125C153.3375 90.81375 153.435 90.8775 153.5325 90.9375 153.63 90.9975 153.77625 91.095 153.9075 91.1775 153.944042 91.2002672 153.979112 91.225317 154.0125 91.2525L154.10625 91.32375C154.189512 91.3775844 154.268497 91.437763 154.3425 91.50375L154.5675 91.68375C155.983939 92.848828 157.046431 94.386714 157.635 96.12375 157.66875 96.22125 157.70625 96.32625 157.73625 96.43125 157.755649 96.4782271 157.769493 96.5273098 157.7775 96.5775 157.815 96.705 157.84875 96.8325 157.8825 96.9525 157.91625 97.0725 157.94625 97.21125 157.9725 97.34625 157.99875 97.48125 158.02125 97.59 158.04375 97.72125 158.06625 97.8525 158.09625 98.02875 158.115 98.17875 158.152397 98.4711686 158.174926 98.7652971 158.1825 99.06 158.1825 99.25125 158.1825 99.435 158.1825 99.6375 158.1825 99.84 158.1825 100.0125 158.1525 100.185 158.1225 100.3575 158.12625 100.45875 158.10375 100.5975 158.055664 101.020892 157.979242 101.440583 157.875 101.85375 157.224396 104.458717 155.547004 106.689377 153.225 108.0375 153.11625 108.10875 152.98125 108.18375 152.85 108.255L136.35 117.03C136.075584 117.17601 135.73476 117.071916 135.58875 116.7975 135.44274 116.523084 135.546834 116.18226 135.82125 116.03625L152.32125 107.25C152.43 107.19 152.53875 107.13375 152.64 107.06625 154.698161 105.866361 156.185352 103.887044 156.765 101.57625 156.857395 101.205972 156.926282 100.830223 156.97125 100.45125 156.99 100.32 157.00125 100.2 157.0125 100.07625 157.02375 99.9525 157.0125 99.7575 157.03875 99.6 157.065 99.4425 157.03875 99.225 157.03875 99.07125 157.031161 98.8204118 157.011137 98.5701044 156.97875 98.32125 156.97875 98.18625 156.94125 98.055 156.91875 97.94625 156.89625 97.8375 156.88125 97.71 156.855 97.605 156.82875 97.5 156.8025 97.365 156.77625 97.24875L156.675 96.87375 156.64875 96.7875C156.6225 96.68625 156.58875 96.585 156.555 96.4875 156.032968 94.9474995 155.091377 93.5838158 153.83625 92.55L153.6075 92.36625C153.560503 92.3237734 153.51036 92.2849126 153.4575 92.25L153.255 92.10375C153.15 92.02875 153.045 91.9575 152.93625 91.89L152.67375 91.72875 152.39625 91.57125 152.11125 91.425C151.9575 91.35 151.815 91.2825 151.66875 91.2225 151.60875 91.1925 151.55625 91.17375 151.50375 91.15125L151.45125 91.12875 151.10625 91.00125 150.73125 90.8775 150.56625 90.8325 150.43875 90.79875 150.36375 90.79875 150.04875 90.72375C147.97946 90.2571263 145.811379 90.5499303 143.94 91.54875L121.665 103.41 121.56 103.41C121.001707 103.470121 120.448839 103.572921 119.90625 103.7175L119.17875 103.9125 119.20125 103.1625C119.63625 87.9675 129.7725 77.23125 144.42375 76.44375 144.96375 76.4175 145.5075 76.4025 146.04 76.4025 153.045 76.4025 159.54 78.93 164.28375 83.5275 169.335 88.4025 172.2375 95.25375 172.67625 103.35L172.70625 103.97625 186.375 94.36875C186.775129 94.0867824 187.196374 93.8360414 187.635 93.61875L190.32375 92.29875 188.29875 94.50375C187.062401 95.8405208 186.275601 97.530831 186.04875 99.3375 185.625902 102.651064 187.11291 105.918869 189.889016 107.776755 192.665123 109.634642 196.253049 109.763195 199.155 108.10875L201.7425 106.60875 199.8675 108.93C199.297629 109.633793 198.632485 110.254762 197.89125 110.775L183.54375 120.84 183.2325 120.14625C182.728443 119.082694 181.459442 118.626726 180.39375 119.12625L148.32 134.12625C148.260632 134.166341 148.194602 134.195546 148.125 134.2125z"></path>
                    <path fill="#646464" fill-rule="nonzero" d="M173.03625 120.862501C172.736938 120.862926 172.489713 120.628886 172.47375 120.33L171.645 105.0375C171.636828 104.888262 171.688386 104.741908 171.788292 104.630744 171.888199 104.51958 172.028239 104.452748 172.1775 104.445 172.486122 104.434123 172.747989 104.669472 172.77 104.9775L173.59875 120.27C173.606922 120.419238 173.555364 120.565592 173.455458 120.676756 173.355551 120.78792 173.215511 120.854752 173.06625 120.862501L173.03625 120.862501zM123.375 172.241251C123.075688 172.241676 122.828463 172.007636 122.8125 171.70875L122.4675 165.315C122.450931 165.00434 122.68934 164.739069 123 164.7225 123.31066 164.705931 123.575931 164.94434 123.5925 165.255L123.9375 171.64875C123.946917 171.803013 123.891583 171.954216 123.784819 172.065962 123.678055 172.177708 123.529532 172.239876 123.375 172.2375L123.375 172.241251zM199.125 153.251262C198.906577 153.252676 198.707351 153.126694 198.615 152.92875L197.625 150.80625C197.493487 150.524585 197.61521 150.189638 197.896875 150.058125 198.17854 149.926612 198.513487 150.048335 198.645 150.33L199.63875 152.44875C199.769254 152.731493 199.646957 153.066555 199.365 153.19875 199.289618 153.23304 199.207814 153.250935 199.125 153.251262zM197.10375 148.96875C196.885861 148.968326 196.687543 148.842919 196.59375 148.64625L196.21875 147.85125C196.087237 147.566478 196.211478 147.229013 196.49625 147.0975 196.781022 146.965987 197.118487 147.090228 197.25 147.375L197.625 148.17C197.690017 148.305061 197.698041 148.460582 197.647268 148.601617 197.596496 148.742651 197.491185 148.857372 197.355 148.92 197.276322 148.956009 197.190186 148.972722 197.10375 148.96875zM143.06625 136.57125C142.848361 136.570826 142.650043 136.445419 142.55625 136.24875 142.492528 136.113072 142.485595 135.957572 142.536991 135.816761 142.588387 135.675951 142.693859 135.561478 142.83 135.49875L147.87375 133.13625C148.055955 133.051176 148.269707 133.06977 148.434485 133.185028 148.599264 133.300285 148.690037 133.494696 148.67261 133.695028 148.655184 133.895359 148.532205 134.071176 148.35 134.15625L143.30625 136.515C143.231611 136.551875 143.149501 136.57112 143.06625 136.57125L143.06625 136.57125zM195.55125 145.65003C195.331958 145.650753 195.132498 145.523158 195.04125 145.32375L183.3 120.24375C183.168487 119.962085 183.29021 119.627138 183.571875 119.495625 183.85354 119.364112 184.188487 119.485835 184.32 119.7675L196.06125 144.8475C196.124972 144.983178 196.131905 145.138678 196.080509 145.279489 196.029113 145.420299 195.923641 145.534772 195.7875 145.5975 195.713823 145.632901 195.632986 145.650864 195.55125 145.65003zM137.94 190.627502C136.673668 190.628902 135.52064 189.898213 134.98125 188.7525L117.33 151.0425C116.962101 150.258486 116.921414 149.360274 117.216926 148.54621 117.512438 147.732145 118.119838 147.069194 118.905 146.70375L125.655 143.5425C125.837988 143.445981 126.05919 143.4577 126.230956 143.573013 126.402722 143.688326 126.497326 143.88862 126.477282 144.09453 126.457237 144.30044 126.325781 144.478729 126.135 144.55875L119.385 147.72C118.87049 147.95928 118.472478 148.39364 118.278959 148.927049 118.085439 149.460458 118.112353 150.04898 118.35375 150.5625L136.00125 188.26875C136.502697 189.33922 137.776741 189.80083 138.8475 189.3L199.875 160.725C200.397018 160.488119 200.802255 160.051814 201 159.51375 201.195436 158.98077 201.16841 158.391599 200.925 157.87875L199.8 155.44125C199.693375 155.165582 199.818289 154.854413 200.085928 154.728988 200.353567 154.603563 200.672625 154.706671 200.81625 154.965L201.94125 157.4025C202.310434 158.185903 202.352203 159.084132 202.057315 159.898416 201.762428 160.7127 201.155198 161.375898 200.37 161.74125L139.32 190.32C138.887811 190.521563 138.41688 190.626499 137.94 190.627502z"></path>
                    <path fill="#646464" fill-rule="nonzero" d="M145.75125 141.611257C145.486901 141.612531 145.257329 141.429564 145.199601 141.171593 145.141873 140.913621 145.271568 140.65026 145.51125 140.53875L153.435 136.82625 153.4725 136.82625 184.8075 122.15625C185.090243 122.025746 185.425305 122.148043 185.5575 122.43 185.622517 122.565061 185.630541 122.720582 185.579768 122.861617 185.528996 123.002651 185.423685 123.117372 185.2875 123.18L153.915 137.865 153.88125 137.865 145.9875 141.5625C145.912992 141.594986 145.832532 141.611589 145.75125 141.611257L145.75125 141.611257zM119.11125 154.076298C118.844347 154.079714 118.611763 153.89512 118.554532 153.634401 118.497301 153.373683 118.631185 153.108645 118.875 153L128.34 148.5675C128.621665 148.435987 128.956612 148.55771 129.088125 148.839375 129.219638 149.12104 129.097915 149.455987 128.81625 149.5875L119.35125 154.01625C119.27712 154.054947 119.194869 154.075509 119.11125 154.076298L119.11125 154.076298z"></path>
                    <path fill="#0082FA" fill-rule="nonzero" d="M179.71125,123.5475 C179.124285,123.548082 178.586674,123.21914 178.32,122.69625 L178.32,122.65125 C177.960981,121.892901 178.272829,120.986628 179.022473,120.60977 C179.772116,120.232911 180.685512,120.523232 181.08,121.26375 C181.095268,121.291749 181.109038,121.320539 181.12125,121.35 C181.148264,121.404337 181.170838,121.460772 181.18875,121.51875 C181.389733,122.108311 181.213248,122.760862 180.7425,123.16875 C180.629442,123.265029 180.503155,123.34459 180.3675,123.405 C180.162083,123.500752 179.93788,123.549436 179.71125,123.5475 L179.71125,123.5475 Z M179.71125,121.5825 C179.540532,121.585199 179.388438,121.690978 179.3265,121.850087 C179.264562,122.009196 179.305109,122.189966 179.42907,122.307378 C179.553031,122.42479 179.735734,122.455475 179.89125,122.385 C179.926314,122.369502 179.959114,122.349318 179.98875,122.325 C180.116105,122.211533 180.164614,122.033663 180.1125,121.87125 C180.113807,121.857531 180.113807,121.843719 180.1125,121.83 L180.1125,121.8 C180.032863,121.651419 179.871472,121.565541 179.70375,121.5825 L179.71125,121.5825 Z"></path>
                    <path fill="#0FD2FF" fill-rule="nonzero" d="M175.5525,125.49751 C174.963111,125.499656 174.423078,125.168667 174.1575,124.6425 L174.13875,124.60125 C173.754567,123.839097 174.060972,122.909808 174.823125,122.525625 C175.585278,122.141442 176.514567,122.447847 176.89875,123.21 L176.94375,123.29625 C176.969464,123.35116 176.992001,123.407503 177.01125,123.465 C177.209832,124.056519 177.032175,124.70941 176.56125,125.11875 C176.448394,125.214311 176.322027,125.292659 176.18625,125.35125 C175.988239,125.445764 175.771904,125.495687 175.5525,125.49751 Z M175.5525,123.5325 C175.491704,123.531858 175.431518,123.544664 175.37625,123.57 C175.215416,123.691054 175.161944,123.90855 175.248313,124.090379 C175.334682,124.272209 175.537052,124.36818 175.7325,124.32 C175.768122,124.303959 175.801019,124.282449 175.83,124.25625 C175.956712,124.143984 176.005239,123.967521 175.95375,123.80625 C175.948851,123.790722 175.942576,123.775663 175.935,123.76125 L175.935,123.735 C175.853513,123.597503 175.700493,123.518807 175.54125,123.5325 L175.5525,123.5325 Z"></path>
                    <path fill="#949494" fill-rule="nonzero" d="M171.3075,127.5 C170.719706,127.499865 170.181887,127.169345 169.91625,126.645 L169.8975,126.61125 C169.511246,125.850133 169.815133,124.920004 170.57625,124.53375 C171.337367,124.147496 172.267496,124.451383 172.65375,125.2125 C172.671565,125.241626 172.687837,125.271667 172.7025,125.3025 C172.725,125.355 172.7475,125.41125 172.76625,125.4675 C172.964832,126.059019 172.787175,126.71191 172.31625,127.12125 C172.203901,127.217506 172.077424,127.295921 171.94125,127.35375 C171.742808,127.447026 171.526748,127.496886 171.3075,127.5 L171.3075,127.5 Z M171.3075,125.535 C171.130262,125.533299 170.97175,125.645012 170.91375,125.8125 C170.870833,125.915717 170.870833,126.031783 170.91375,126.135 C171.016449,126.3426 171.264794,126.432005 171.47625,126.3375 C171.50949,126.319335 171.540888,126.297985 171.57,126.27375 C171.700934,126.162529 171.750089,125.982295 171.69375,125.82 C171.688851,125.804472 171.682576,125.789413 171.675,125.775 L171.675,125.75625 C171.603153,125.612605 171.456856,125.52135 171.29625,125.52 L171.3075,125.535 Z"></path>
                    <path fill="#0FD2FF" fill-rule="nonzero" d="M129.0375,158.475 C128.909788,158.475189 128.782975,158.453631 128.6625,158.41125 C128.400941,158.314809 128.188903,158.117628 128.07375,157.86375 L126.51375,154.5 C126.270633,153.973801 126.496421,153.349958 127.02,153.10125 L130.5,151.5 L133.2375,156.63375 L129.4875,158.385 C129.346125,158.448295 129.192345,158.479051 129.0375,158.475 L129.0375,158.475 Z M127.56375,154.09875 L129.06375,157.32375 L131.66625,156.105 L129.99,152.95875 L127.56375,154.09875 Z"></path>
                    <path fill="#949494" fill-rule="nonzero" d="M149.38125,149.05875 L146.64375,143.925 L179.67,128.4675 C179.922708,128.346779 180.213361,128.332814 180.47648,128.428749 C180.739598,128.524685 180.953051,128.722454 181.06875,128.9775 L182.63625,132.33 C182.756156,132.582396 182.770115,132.87227 182.675018,133.13502 C182.579921,133.39777 182.383669,133.611562 182.13,133.72875 L149.38125,149.05875 Z M148.19625,144.4425 L149.8725,147.58875 L181.58625,132.75 L180.08625,129.52875 L148.19625,144.4425 Z"></path>
                    <path fill="#646464" fill-rule="nonzero" d="M151.22625 151.702517C150.961901 151.703781 150.732329 151.520814 150.674601 151.262843 150.616873 151.004871 150.746568 150.74151 150.98625 150.63L172.92375 140.3625C173.195721 140.267636 173.495408 140.393552 173.618008 140.654198 173.740609 140.914845 173.646502 141.22599 173.4 141.375L151.46625 151.65C151.391176 151.685209 151.309167 151.703148 151.22625 151.702517L151.22625 151.702517zM134.0775 169.90875C134.008514 169.909848 133.939901 169.898413 133.875 169.875 133.734995 169.82577 133.621195 169.721454 133.56 169.58625L129.66375 161.25C129.59766 161.115101 129.589076 160.959174 129.639958 160.817835 129.69084 160.676496 129.796842 160.56182 129.93375 160.5L133.875 158.625C134.156665 158.493487 134.491612 158.61521 134.623125 158.896875 134.754638 159.17854 134.632915 159.513487 134.35125 159.645L130.92 161.25 134.35125 168.585 136.3725 167.63625C136.554705 167.551176 136.768457 167.56977 136.933235 167.685028 137.098014 167.800285 137.188787 167.994696 137.17136 168.195028 137.153934 168.395359 137.030955 168.571176 136.84875 168.65625L134.3175 169.875C134.240706 169.902773 134.158975 169.914266 134.0775 169.90875L134.0775 169.90875z"></path>
                    <path fill="#949494" fill-rule="nonzero" d="M139.2525,180.270013 C138.838032,180.270013 138.460967,180.030259 138.285,179.655 L135.1875,173.03625 C134.936979,172.501911 135.166973,171.865652 135.70125,171.615 L136.03125,171.46125 C136.215017,171.35908 136.440423,171.36793 136.615614,171.484192 C136.790805,171.600454 136.88653,171.804716 136.863779,172.01374 C136.841028,172.222765 136.703601,172.40165 136.5075,172.4775 L136.23,172.60875 L139.27875,179.12625 L154.39125,172.05 L151.3425,165.53625 L142.36875,169.73625 C142.087085,169.868798 141.751298,169.747915 141.61875,169.46625 C141.486202,169.184585 141.607085,168.848798 141.88875,168.71625 L150.915,164.49375 C151.171214,164.371202 151.466143,164.357673 151.7325,164.45625 C151.999073,164.552361 152.216351,164.750746 152.33625,165.0075 L155.43375,171.62625 C155.684271,172.160589 155.454277,172.796848 154.92,173.0475 L139.70625,180.1725 C139.563853,180.237498 139.409028,180.270766 139.2525,180.270013 L139.2525,180.270013 Z"></path>
                    <path fill="#646464" fill-rule="nonzero" d="M176.385 162.941269C176.319762 162.941269 176.255021 162.929903 176.19375 162.9075 176.053191 162.855676 175.938684 162.750599 175.875 162.615L172.34625 155.08125C172.215746 154.798507 172.338043 154.463445 172.62 154.33125L188.745 146.7825C189.026736 146.651492 189.361415 146.771977 189.495 147.0525L193.02 154.58625C193.151008 154.867986 193.030523 155.202665 192.75 155.33625L176.625 162.885C176.550648 162.922669 176.468347 162.941958 176.385 162.941269L176.385 162.941269zM173.625 155.11125L176.655 161.625 191.7675 154.5525 188.715 148.035 173.625 155.11125zM157.695 171.68625C157.484858 171.686844 157.292153 171.569483 157.19625 171.3825L156.66375 170.355 154.36875 165.2625 153.66375 163.8375C153.59953 163.702747 153.591506 163.547994 153.641445 163.407322 153.691383 163.26665 153.795189 163.151597 153.93 163.0875L155.21625 162.4875C155.351311 162.422483 155.506832 162.414459 155.647867 162.465232 155.788901 162.516004 155.903622 162.621315 155.96625 162.7575 156.097258 163.039236 155.976773 163.373915 155.69625 163.5075L154.94625 163.86375 155.40375 164.79 157.67625 169.875 157.94625 170.4 173.0775 163.3125 170.02875 156.79875 161.82 160.63875C161.544332 160.745375 161.233163 160.620461 161.107738 160.352822 160.982313 160.085183 161.085421 159.766125 161.34375 159.6225L170.0625 155.5425C170.197561 155.477483 170.353082 155.469459 170.494117 155.520232 170.635151 155.571004 170.749872 155.676315 170.8125 155.8125L174.34125 163.34625C174.404972 163.481928 174.411905 163.637428 174.360509 163.778239 174.309113 163.919049 174.203641 164.033522 174.0675 164.09625L157.9425 171.645C157.864344 171.677857 157.779588 171.691983 157.695 171.68625zM166.27125 170.741257C166.006901 170.742531 165.777329 170.559564 165.719601 170.301593 165.661873 170.043621 165.791568 169.78026 166.03125 169.66875L193.5 156.8175C193.781665 156.685987 194.116612 156.80771 194.248125 157.089375 194.379638 157.37104 194.257915 157.705987 193.97625 157.8375L166.5 170.68875C166.428079 170.721523 166.350264 170.739382 166.27125 170.741257L166.27125 170.741257z"></path>
                    <path fill="#949494" fill-rule="nonzero" d="M140.18625,182.95129 C139.921901,182.952531 139.692329,182.769564 139.634601,182.511593 C139.576873,182.253621 139.706568,181.99026 139.94625,181.87875 L166.03125,169.66875 C166.312915,169.537237 166.647862,169.65896 166.779375,169.940625 C166.910888,170.22229 166.789165,170.557237 166.5075,170.68875 L140.4225,182.89875 C140.348868,182.934279 140.268,182.95225 140.18625,182.95129 L140.18625,182.95129 Z"></path>
                    <path fill="#0FD2FF" fill-rule="nonzero" d="M141.33375,185.400007 C141.069401,185.401281 140.839829,185.218314 140.782101,184.960343 C140.724373,184.702371 140.854068,184.43901 141.09375,184.3275 L173.02875,169.38 C173.212517,169.27783 173.437923,169.28668 173.613114,169.402942 C173.788305,169.519204 173.88403,169.723466 173.861279,169.93249 C173.838528,170.141515 173.701101,170.3204 173.505,170.39625 L141.57,185.3475 C141.49577,185.381276 141.415299,185.399159 141.33375,185.400007 Z"></path>
                    <path fill="#0082FA" fill-rule="nonzero" d="M173.25,170.448793 C173.032111,170.448326 172.833793,170.322919 172.74,170.12625 C172.676278,169.990572 172.669345,169.835072 172.720741,169.694261 C172.772137,169.553451 172.877609,169.438978 173.01375,169.37625 L194.61375,159.25125 C194.895415,159.119737 195.230362,159.24146 195.361875,159.523125 C195.493388,159.80479 195.371665,160.139737 195.09,160.27125 L173.49,170.39625 C173.415053,170.43183 173.332958,170.449788 173.25,170.448793 Z"></path>
                    <path fill="#949494" fill-rule="nonzero" d="M158.22,158.625007 C157.955651,158.626281 157.726079,158.443314 157.668351,158.185343 C157.610623,157.927371 157.740318,157.66401 157.98,157.5525 L186.375,144.2475 C186.58418,144.146216 186.674123,143.896373 186.5775,143.685 L183.5025,137.115 C183.402734,136.906314 183.154052,136.816188 182.94375,136.9125 L173.4,141.375 C173.217795,141.460074 173.004043,141.44148 172.839265,141.326222 C172.674486,141.210965 172.583713,141.016554 172.60114,140.816222 C172.618566,140.615891 172.741545,140.440074 172.92375,140.355 L182.4675,135.885 C183.243195,135.525475 184.16358,135.86077 184.52625,136.635 L187.5975,143.205 C187.771065,143.576895 187.789532,144.002565 187.648828,144.388094 C187.508124,144.773624 187.219811,145.08733 186.8475,145.26 L158.44875,158.55375 C158.378956,158.59469 158.300697,158.619066 158.22,158.625007 Z"></path>
                    <path fill="#646464" fill-rule="nonzero" d="M133.5,118.55625 L133.80375,117.33 C134.265304,115.437155 134.231726,113.457355 133.70625,111.58125 L133.6425,111.375 C132.79983,108.559022 130.888513,106.184682 128.3175,104.76 L128.13375,104.65875 C127.339358,104.23582 126.497088,103.909739 125.625,103.6875 C124.306283,103.345816 122.935827,103.250468 121.5825,103.40625 L118.6425,103.74 L143.43375,90.53625 C145.540695,89.4237109 147.975801,89.1005374 150.3,89.625 L150.0675,90.72375 L150,90.72375 L149.71875,90.6675 L149.3175,90.6075 C146.217177,90.2166576 143.139611,91.4841421 141.21375,93.945 L141.1725,93.99375 C139.42344,96.2743026 138.890173,99.2619489 139.742248,102.00678 C140.594324,104.751612 142.725713,106.912071 145.45875,107.80125 C145.638445,107.864103 145.821173,107.91792 146.00625,107.9625 C148.250513,108.529854 150.627879,108.191769 152.625,107.02125 L153.0525,106.77375 L153.75,107.7 L153.2325,108.03 C153.105,108.10875 152.97,108.18375 152.8575,108.255 L133.5,118.55625 Z M134.59125,110.65125 L134.59125,110.65125 L134.715,111.04875 C135.058574,112.173231 135.23669,113.341723 135.24375,114.5175 C135.254964,115.152332 135.213572,115.787002 135.12,116.415 L148.42125,109.335 C147.51253,109.354297 146.605423,109.249583 145.725,109.02375 C145.5075,108.97125 145.30125,108.91125 145.095,108.84 C142.086215,107.858748 139.721267,105.508423 138.721373,102.505782 C137.721479,99.5031406 138.205192,96.2041972 140.025,93.615 L129.8025,99.05625 L129.8025,99.28125 L129.375,99.28125 L123.81375,102.24375 C124.511228,102.300519 125.202528,102.4172 125.88,102.5925 C126.909724,102.852985 127.901627,103.244956 128.83125,103.75875 L129.12375,103.9275 C131.699117,105.434132 133.641459,107.822761 134.59125,110.65125 Z"></path>
                    <path fill="#646464" fill-rule="nonzero" d="M136.42125 162.405L134.2575 160.155C134.054162 159.947339 133.861418 159.729562 133.68 159.5025 133.294689 159.024469 132.955666 158.510911 132.6675 157.96875L113.04375 121.125 115.36125 123.15375C116.696234 124.338728 118.29599 125.186187 120.02625 125.625 120.35625 125.7075 120.67875 125.775 120.99 125.82375 126.304917 126.694154 131.496334 123.696028 133.39875 118.6575L133.8375 117.495 150.375 148.5375C150.604349 148.966644 150.79994 149.412993 150.96 149.8725L151.9425 152.7 150 150.42C149.57937 149.930064 149.106576 149.487448 148.59 149.1 145.98563 147.14531 142.515347 146.786835 139.566402 148.167877 136.617456 149.54892 134.670949 152.444171 134.505 155.69625 134.445802 156.763982 134.58568 157.833412 134.9175 158.85 134.99625 159.10125 135.0825 159.33 135.1725 159.54375L136.42125 162.405zM116.625 125.43375L133.41375 156.9525C133.377508 156.51469 133.371243 156.074915 133.395 155.63625 133.430669 154.983408 133.528614 154.335466 133.6875 153.70125 134.481061 150.599959 136.718462 148.069986 139.699445 146.903159 142.680428 145.736332 146.040768 146.075217 148.72875 147.81375L133.9875 120.13875C131.568842 125.049758 126.223787 127.80221 120.82125 126.91875 120.48375 126.86625 120.1275 126.79125 119.76375 126.70125 118.663966 126.42579 117.607666 125.999232 116.625 125.43375zM152.7975 108.28875L152.34375 107.7 152.34375 107.1825 152.625 107.0175C154.693634 105.829673 156.190676 103.852116 156.7725 101.53875 156.863589 101.182111 156.932471 100.820166 156.97875 100.455L158.10375 100.59C157.740712 103.701132 155.934776 106.460046 153.22875 108.0375L152.7975 108.28875z"></path>
                    <path fill="#646464" fill-rule="nonzero" d="M143.11875,177.720142 C142.764557,177.720142 142.417987,177.617141 142.12125,177.42375 L137.84625,174.67875 C136.880805,174.060267 136.210179,173.073973 135.99,171.94875 C135.926744,171.617708 135.90158,171.280514 135.915,170.94375 L136.3575,161.7 L137.25,162.5475 C138.341707,163.580988 139.678779,164.319217 141.135,164.6925 C141.34875,164.745 141.585,164.79375 141.885,164.84625 L142.3725,164.9325 L142.16625,169.30875 C142.162491,169.354924 142.162491,169.401326 142.16625,169.4475 C142.185381,169.894275 142.422138,170.303346 142.8,170.5425 L145.4625,172.2525 C146.319281,172.81434 146.566425,173.959888 146.0175,174.825 L144.68625,176.8725 C144.421012,177.286446 144.000954,177.57684 143.52,177.67875 C143.38828,177.707876 143.253641,177.721717 143.11875,177.720142 Z M137.37,164.11875 L137.04,171 C137.028802,171.251348 137.047686,171.503134 137.09625,171.75 C137.257245,172.570515 137.746216,173.289749 138.45,173.74125 L142.72875,176.49 C142.890447,176.595407 143.08755,176.631858 143.27625,176.59125 C143.465545,176.551158 143.630565,176.436185 143.73375,176.2725 L145.065,174.22125 C145.170804,174.059712 145.207285,173.862443 145.16625,173.67375 C145.124515,173.483196 145.010179,173.316399 144.8475,173.20875 L142.185,171.5025 C141.502704,171.064887 141.073886,170.324581 141.03375,169.515 C141.03375,169.43625 141.03375,169.34625 141.03375,169.2675 L141.195,165.87 C141.075,165.84375 140.9625,165.82125 140.8575,165.79125 C139.596814,165.467177 138.411943,164.898948 137.37,164.11875 L137.37,164.11875 Z M159.825,169.2075 L159.75,169.2075 L157.30875,169.095 C156.817249,169.07265 156.354827,168.855695 156.023481,168.491988 C155.692135,168.128281 155.519085,167.647702 155.5425,167.15625 L155.69625,163.8975 C155.709038,163.607475 155.631752,163.3206 155.475,163.07625 C155.370046,162.910666 155.229035,162.770937 155.0625,162.6675 L151.17375,160.17375 L151.3725,159.73125 C151.57571,159.277618 151.738832,158.807073 151.86,158.325 C152.183158,157.074573 152.222876,155.767744 151.97625,154.5 L151.72875,153.21 L160.00875,158.5275 C161.266318,159.342477 161.999374,160.761526 161.93625,162.25875 L161.68875,167.44125 C161.631329,168.429759 160.815166,169.203225 159.825,169.2075 L159.825,169.2075 Z M152.57625,159.75 L155.655,161.72625 C155.958369,161.916481 156.214769,162.172881 156.405,162.47625 C156.692446,162.915108 156.834168,163.433441 156.81,163.9575 L156.6525,167.22 C156.643826,167.413481 156.712659,167.602434 156.84375,167.745 C156.973037,167.889741 157.156022,167.975134 157.35,167.98125 L159.79125,168.093753 C160.184455,168.094857 160.511761,167.792099 160.54125,167.4 L160.78875,162.2175 C160.81138,161.684413 160.695079,161.154596 160.45125,160.68 L160.45125,160.68 C160.207661,160.193171 159.837115,159.781165 159.37875,159.4875 L153.22875,155.5125 C153.295337,156.550033 153.19789,157.591575 152.94,158.59875 C152.84181,158.989409 152.720343,159.373845 152.57625,159.75 Z"></path>
                    <path fill="#646464" fill-rule="nonzero" d="M143.32125 166.09125C142.98683 166.090589 142.652655 166.073067 142.32 166.03875L142.2825 166.03875C142.0825 166.01875 141.88375 165.9925 141.68625 165.96 141.36 165.9 141.0975 165.8475 140.8575 165.78375 139.213704 165.36501 137.704519 164.532312 136.47375 163.365 135.472538 162.41228 134.678509 161.263363 134.14125 159.99 134.029868 159.732867 133.93223 159.469997 133.84875 159.2025 133.47673 158.054824 133.319105 156.848482 133.38375 155.64375 133.419419 154.990908 133.517364 154.342966 133.67625 153.70875 134.589147 150.110148 137.432535 147.320935 141.04803 146.477425 144.663526 145.633915 148.447643 146.876902 150.85875 149.7 151.171231 150.059854 151.453441 150.444914 151.7025 150.85125 153.169896 153.153807 153.617909 155.961357 152.94 158.60625L152.94 158.60625C152.802113 159.148625 152.617679 159.678089 152.38875 160.18875 152.156367 160.713226 151.876448 161.215322 151.5525 161.68875 149.71436 164.436821 146.627402 166.087887 143.32125 166.09125L143.32125 166.09125zM142.3875 164.9175L142.40625 164.9175C146.194511 165.312142 149.807332 163.227356 151.36125 159.75 151.56447 159.295081 151.727589 158.82329 151.84875 158.34L151.84875 158.34C152.452347 155.988236 152.054552 153.491497 150.75 151.44375 150.527527 151.084344 150.276731 150.743261 150 150.42375 147.657268 147.681276 143.879326 146.644106 140.464715 147.805999 137.050105 148.967892 134.688827 152.094061 134.505 155.69625 134.445802 156.763982 134.58568 157.833412 134.9175 158.85 134.99625 159.10125 135.0825 159.33 135.1725 159.54375 135.650013 160.674824 136.354543 161.695882 137.2425 162.54375 138.336146 163.576584 139.674243 164.314666 141.13125 164.68875 141.345 164.74125 141.58125 164.79 141.88125 164.8425 142.04625 164.87625 142.215 164.89875 142.3875 164.9175L142.3875 164.9175zM122.8275 127.083753C122.15161 127.084258 121.476826 127.029071 120.81 126.91875 120.4725 126.86625 120.11625 126.79125 119.7525 126.70125 116.552417 125.892277 113.80544 123.843838 112.117159 121.007525 110.428877 118.171211 109.937912 114.779908 110.7525 111.58125 111.871186 107.211157 115.264963 103.787258 119.625 102.63 120.220829 102.471119 120.827431 102.355814 121.44 102.285 123.999555 102.003845 126.583493 102.519847 128.83875 103.7625L129.13125 103.93125C131.703093 105.43834 133.642546 107.825359 134.59125 110.65125L134.59125 110.65125 134.715 111.04875C135.356666 113.179168 135.416228 115.442533 134.8875 117.60375 134.880876 117.648204 134.870846 117.692083 134.8575 117.735 134.746129 118.17949 134.607109 118.61659 134.44125 119.04375 132.614726 123.875062 127.992545 127.074918 122.8275 127.083753L122.8275 127.083753zM122.8275 103.33125C122.407653 103.331979 121.988201 103.357021 121.57125 103.40625 121.012957 103.466371 120.460089 103.569171 119.9175 103.71375 115.881076 104.789663 112.765536 108.001571 111.813043 112.068888 110.86055 116.136205 112.226004 120.397482 115.365 123.15375 116.698909 124.338202 118.297321 125.185631 120.02625 125.625 120.35625 125.7075 120.67875 125.775 120.99 125.82375 126.304917 126.694154 131.496334 123.696028 133.39875 118.6575 133.548471 118.264373 133.673711 117.862354 133.77375 117.45375 133.77375 117.41625 133.77375 117.3975 133.7925 117.3825 134.025363 116.454606 134.136298 115.500318 134.1225 114.54375L134.1225 114.54375C134.117945 113.547898 133.976624 112.557391 133.7025 111.6L133.63875 111.39375C132.79608 108.577772 130.884763 106.203432 128.31375 104.77875L128.13 104.6775C126.492563 103.81428 124.671018 103.358894 122.82 103.35L122.8275 103.33125zM148.21125 109.335C147.375239 109.335258 146.542494 109.230692 145.7325 109.02375 145.515 108.97125 145.30875 108.91125 145.1025 108.84 142.015665 107.833114 139.611715 105.387344 138.65821 102.283605 137.704705 99.1798653 138.320882 95.8062773 140.31 93.24L140.35125 93.19125C142.522579 90.4380327 145.977582 89.0235874 149.45625 89.46375 149.60625 89.46375 149.7525 89.50125 149.90625 89.5275L150.22125 89.5875 150.28875 89.5875C150.41625 89.61375 150.5325 89.64375 150.66375 89.67375L150.7275 89.67375 150.89625 89.7225C150.962205 89.7377649 151.027298 89.7565417 151.09125 89.77875L151.46625 89.90625C151.59375 89.9475 151.71375 89.9925 151.84125 90.0375 151.875 90.0375 151.9125 90.06375 151.94625 90.0825L152.1375 90.16125C152.295 90.22875 152.46 90.30375 152.62125 90.38625 152.72625 90.43375 152.835 90.49 152.9475 90.555L153.25125 90.7275C153.34875 90.78 153.44625 90.84375 153.54375 90.90375 153.64125 90.96375 153.7875 91.06125 153.91875 91.14375 153.955292 91.1665172 153.990362 91.191567 154.02375 91.21875L154.12125 91.29C154.202688 91.3447329 154.280363 91.4048679 154.35375 91.47L154.57875 91.65C154.72875 91.77375 154.86375 91.8975 154.99875 92.025 155.13375 92.1525 155.19 92.20125 155.28 92.295L155.61375 92.64375 155.925 93.01875C156.02625 93.1425 156.12 93.27 156.21375 93.39375 156.27 93.465 156.3225 93.54 156.37125 93.61125 156.513868 93.8082386 156.646534 94.0122439 156.76875 94.2225 156.855 94.36125 156.9375 94.5075 157.01625 94.6575 157.095 94.8075 157.11375 94.845 157.15875 94.93875 157.20375 95.0325 157.24875 95.12625 157.29375 95.22375 157.41 95.475 157.52625 95.76 157.6425 96.08625 157.68 96.195 157.7175 96.3 157.7475 96.405 157.766899 96.4519771 157.780743 96.5010598 157.78875 96.55125 157.82625 96.67875 157.86 96.80625 157.89375 96.92625 157.9275 97.04625 157.9575 97.185 157.98375 97.32 158.01 97.455 158.0325 97.56375 158.055 97.695 158.0775 97.82625 158.1075 98.0025 158.12625 98.1525 158.16 98.44875 158.1825 98.74125 158.19375 99.02625L158.19375 99.02625C158.19375 99.21375 158.19375 99.40125 158.19375 99.6 158.19375 99.79875 158.19375 99.975 158.16375 100.1475 158.13375 100.32 158.1375 100.42125 158.115 100.56 158.064718 100.968502 157.987044 101.373164 157.8825 101.77125 157.254638 104.26617 155.679512 106.418348 153.49125 107.77125L153.49125 107.77125 153.21 107.94C151.696728 108.839563 149.97165 109.32098 148.21125 109.335zM141.1725 93.96C139.42344 96.2405526 138.890173 99.2281989 139.742248 101.97303 140.594324 104.717862 142.725713 106.878321 145.45875 107.7675 145.638445 107.830353 145.821173 107.88417 146.00625 107.92875 148.190216 108.492437 150.507262 108.195758 152.47875 107.1L152.625 107.01375C154.693634 105.825923 156.190676 103.848366 156.7725 101.535 156.863589 101.178361 156.932471 100.816416 156.97875 100.45125 156.9975 100.33125 157.00875 100.21125 157.02 100.095 157.03125 99.97875 157.02 99.77625 157.04625 99.61875 157.0725 99.46125 157.04625 99.26625 157.04625 99.09375 157.04625 98.83875 157.01625 98.57625 156.98625 98.3175 156.98625 98.19 156.94875 98.05875 156.92625 97.9425 156.90375 97.82625 156.88875 97.70625 156.8625 97.60125 156.83625 97.49625 156.81 97.36125 156.78375 97.245L156.6825 96.87 156.65625 96.78375C156.63 96.6825 156.59625 96.58125 156.5625 96.48375 156.45375 96.19125 156.3525 95.94 156.24375 95.70375 156.20625 95.6175 156.16875 95.53875 156.13125 95.46375 156.09375 95.38875 156.04125 95.28 155.99625 95.1975 155.95125 95.115 155.8575 94.9425 155.7825 94.8225 155.65875 94.6125 155.5425 94.4475 155.42625 94.275L155.3025 94.1025C155.205 93.975 155.1225 93.8625 155.0325 93.75375 154.9425 93.645 154.8525 93.5325 154.755 93.4275L154.455 93.1125 154.2075 92.87625C154.0875 92.76 153.96375 92.65125 153.8325 92.54625L153.6075 92.36625C153.560503 92.3237734 153.51036 92.2849126 153.4575 92.25L153.255 92.10375C153.15 92.02875 153.045 91.9575 152.93625 91.89L152.67375 91.72875 152.39625 91.57125 152.11125 91.425C151.9575 91.35 151.815 91.2825 151.66875 91.2225 151.60875 91.1925 151.55625 91.17375 151.50375 91.15125L151.45125 91.12875 151.10625 91.00125 150.73125 90.8775 150.56625 90.8325 150.43875 90.79875 150.36375 90.79875 150.04875 90.72375 149.9925 90.72375 149.71125 90.6675 149.31 90.6075C146.209677 90.2166576 143.132111 91.4841421 141.20625 93.945L141.1725 93.96z"></path>
                    <path fill="#646464" fill-rule="nonzero" d="M156.5625 96.49125C156.45375 96.195 156.3525 95.94375 156.24375 95.7075 156.20625 95.62125 156.16875 95.5425 156.13125 95.4675 156.09375 95.3925 156.04125 95.28375 155.99625 95.20125 155.95125 95.11875 155.8575 94.94625 155.7825 94.82625 155.65875 94.61625 155.5425 94.45125 155.42625 94.27875L155.3025 94.10625C155.205 93.97875 155.1225 93.86625 155.0325 93.7575 154.9425 93.64875 154.8525 93.53625 154.755 93.43125L154.455 93.11625 154.2075 92.88C154.0875 92.76375 153.96375 92.655 153.8325 92.55L154.5525 91.68375C155.966673 92.8501332 157.027644 94.3876975 157.61625 96.12375L156.5625 96.49125zM157.04625 99.105C157.04625 98.84625 157.01625 98.58 156.98625 98.32125L158.11125 98.18625C158.148647 98.4786686 158.171176 98.7727971 158.17875 99.0675L157.04625 99.105zM124.33125 184.661281C121.061925 184.671557 118.382232 182.070143 118.295637 178.801948 118.209042 175.533754 120.747216 172.794086 124.0125 172.63125L127.46625 172.44375C127.774233 172.430793 128.036714 172.665033 128.05875 172.9725 128.066922 173.121738 128.015364 173.268092 127.915458 173.379256 127.815551 173.49042 127.675511 173.557252 127.52625 173.565L124.0725 173.7525C121.372863 173.89851 119.30274 176.205363 119.44875 178.905 119.594761 181.604637 121.901613 183.67476 124.60125 183.52875L132.375 183.10875C132.682983 183.095793 132.945464 183.330033 132.9675 183.6375 132.975672 183.786738 132.924114 183.933092 132.824208 184.044256 132.724301 184.15542 132.584261 184.222252 132.435 184.23L124.66875 184.65C124.5525 184.6575 124.44 184.661281 124.33125 184.661281zM159.2925 182.775C158.98184 182.783284 158.723284 182.53816 158.714796 182.2275 158.706716 181.91684 158.95184 181.658284 159.2625 181.65L174.46125 180.82875C177.158818 180.679551 179.226043 178.374058 179.08125 175.67625 179.05125 175.0875 178.89 172.9575 178.81875 172.67625 178.745329 172.375235 178.927472 172.071106 179.2275 171.99375 179.525713 171.915206 179.831174 172.093112 179.91 172.39125 180.03 172.86 180.2025 175.58625 180.20625 175.6125 180.297185 177.207499 179.748264 178.772904 178.681128 179.961817 177.613992 181.15073 176.11677 181.864967 174.52125 181.94625L159.3225 182.77125 159.2925 182.775zM134.025 223.37625C133.185199 223.37625 132.348283 223.277975 131.53125 223.08375 125.807875 221.697279 122.285642 215.940945 123.65625 210.21375 123.924724 209.098661 124.370389 208.033876 124.97625 207.06 125.077794 206.879227 125.270552 206.768972 125.477852 206.772981 125.685151 206.777212 125.873376 206.895038 125.967658 207.079703 126.061939 207.264368 126.046987 207.485926 125.92875 207.65625 125.387963 208.527228 124.990411 209.479327 124.75125 210.47625 124.531138 211.387587 124.448974 212.326787 124.5075 213.2625 124.692929 216.474368 126.484724 219.376439 129.273153 220.981165 132.061581 222.585891 135.471013 222.677098 138.34125 221.22375 138.905948 220.938488 139.441051 220.598082 139.93875 220.2075 140.096221 220.076344 140.312562 220.041208 140.503447 220.115789 140.694331 220.19037 140.829549 220.362864 140.856394 220.566036 140.883239 220.769207 140.797463 220.970901 140.6325 221.0925 140.07559 221.524783 139.477745 221.901576 138.8475 222.2175 137.354039 222.9791 135.701443 223.37625 134.025 223.37625L134.025 223.37625z"></path>
                    <path fill="#C8C8C8" fill-rule="nonzero" d="M140.27625 221.212502C140.036127 221.213131 139.822081 221.061263 139.74336 220.83441 139.664638 220.607557 139.738602 220.355746 139.9275 220.2075 142.688009 218.056553 144.050513 214.567704 143.478315 211.11523 142.906116 207.662757 140.490924 204.800008 137.184097 203.654635 133.87727 202.509263 130.208812 203.264844 127.62375 205.62375L127.5525 205.6875C126.920071 206.26593 126.369947 206.92835 125.9175 207.65625 125.815956 207.837023 125.623198 207.947278 125.415898 207.943158 125.208599 207.939038 125.020374 207.821212 124.926092 207.636547 124.831811 207.451882 124.846763 207.230324 124.965 207.06 125.426474 206.316236 125.979554 205.63339 126.61125 205.0275L126.61125 204.70875 126.95625 204.70875C129.868192 202.139784 133.94568 201.355164 137.60305 202.660015 141.26042 203.964866 143.920448 207.153251 144.548694 210.98526 145.17694 214.81727 143.674253 218.688119 140.625 221.0925 140.525399 221.170299 140.402634 221.212502 140.27625 221.212502L140.27625 221.212502zM140.8725 40.2000007C140.642465 40.196984 140.437452 40.0541944 140.354867 39.8394741 140.272283 39.6247538 140.328774 39.3813856 140.4975 39.225 142.555807 37.3298639 144.88359 35.7502067 147.405 34.5375 147.681458 34.420105 148.001375 34.5406154 148.131672 34.811232 148.261969 35.0818486 148.156674 35.407091 147.8925 35.55 145.472422 36.716368 143.237214 38.2326199 141.25875 40.05 141.153376 40.1466831 141.015508 40.2002239 140.8725 40.2000007z"></path>
                    <path fill="#646464" fill-rule="nonzero" d="M186.45,69.2325 L185.91375,69.21375 C184.55625,69.1725 172.60875,68.70375 170.66625,65.14125 C170.3625,64.5825 170.145,63.67125 170.84625,62.51625 C171.047277,62.1840246 171.318636,61.8998654 171.64125,61.68375 C171.989214,61.4381311 172.389953,61.2775789 172.81125,61.215 C173.669013,61.0908228 174.525032,61.4517073 175.035,62.1525 C176.25,63.7275 176.8125,64.4625 185.685,64.66125 L185.87625,62.2275 C187.1475,49.24875 178.67625,36.98625 166.17,33.6975 C165.869695,33.6177639 165.690889,33.3096798 165.770625,33.009375 C165.850361,32.7090702 166.158445,32.5302639 166.45875,32.61 C179.64697,36.1645239 188.333248,48.7316349 186.9975,62.325 L186.45,69.2325 Z M173.15625,62.30625 C173.091363,62.3008239 173.026137,62.3008239 172.96125,62.30625 C172.489521,62.3843016 172.072017,62.6562911 171.81,63.05625 C171.345,63.825 171.49875,64.29375 171.65625,64.57875 C172.8525,66.7725 180.3375,67.83375 185.415,68.04375 L185.595,65.74875 C176.97,65.55 175.7175,64.84875 174.1425,62.80125 C173.914034,62.4854181 173.546014,62.3007082 173.15625,62.30625 Z"></path>
                    <path fill="#C8C8C8" fill-rule="nonzero" d="M150.6825,34.3575 C150.442967,34.3595668 150.228766,34.2087211 150.15,33.9825 C150.050254,33.6885157 150.205814,33.3690332 150.49875,33.26625 C151.576502,32.898291 152.674574,32.592784 153.7875,32.35125 C154.06125,32.29125 154.33875,32.23875 154.6125,32.18625 C158.54296,31.4408758 162.5903,31.5830901 166.45875,32.6025 C166.653013,32.6540802 166.805002,32.8053805 166.857464,32.9994074 C166.909926,33.1934344 166.85489,33.4007107 166.713089,33.5431574 C166.571287,33.6856042 166.364263,33.7415802 166.17,33.69 C162.462997,32.7142938 158.584924,32.5784908 154.81875,33.2925 C154.5525,33.34125 154.29,33.39375 154.02375,33.45 C152.953876,33.6824942 151.898359,33.9767365 150.8625,34.33125 C150.804597,34.3508775 150.743597,34.3597732 150.6825,34.3575 Z"></path>
                    <path fill="#0FD2FF" fill-rule="nonzero" d="M147.645,35.625 C147.383066,35.6243321 147.156261,35.4429564 147.098017,35.1875795 C147.039773,34.9322027 147.165508,34.6704228 147.40125,34.55625 C148.407941,34.0710708 149.442216,33.6453401 150.49875,33.28125 C150.688994,33.2142627 150.900524,33.2538578 151.053659,33.3851202 C151.206793,33.5163826 151.278268,33.7193705 151.241159,33.9176202 C151.204049,34.11587 151.063994,34.2792627 150.87375,34.34625 C149.860257,34.6973921 148.867423,35.1055432 147.9,35.56875 C147.820543,35.6071108 147.733222,35.6263729 147.645,35.625 L147.645,35.625 Z"></path>
                    <path fill="#646464" fill-rule="nonzero" d="M133.52625 67.6725089C132.738368 67.6725089 132.057306 67.1226837 131.89125 66.3525 129.837448 56.9102219 132.700758 47.069974 139.5 40.20375 139.719609 39.9946743 140.065415 39.9972908 140.281835 40.2096657 140.498255 40.4220407 140.507395 40.7677355 140.3025 40.99125 133.77997 47.5823073 131.033991 57.0253141 133.005 66.08625 133.030333 66.2337603 133.114557 66.3646289 133.238323 66.4487897 133.362089 66.5329505 133.514756 66.563168 133.66125 66.5325L135.64875 66.105C135.848964 66.0524292 136.061874 66.1140712 136.203032 66.265477 136.34419 66.4168828 136.390785 66.6335834 136.324334 66.8296286 136.257884 67.0256738 136.089128 67.1693805 135.885 67.20375L133.8975 67.63125C133.775721 67.6590726 133.651166 67.672912 133.52625 67.6725089L133.52625 67.6725089zM182.8725 75.7125L182.6925 75.7125 135.40125 72.55125C134.842144 72.5052886 134.337547 72.1980822 134.04 71.7225 133.416688 70.7263331 133.502872 69.4426568 134.25375 68.53875 134.609612 68.101767 135.14926 67.85622 135.7125 67.875L186.3 71.25 186.2625 71.8125C186.12 74.0175 184.61625 75.7125 182.8725 75.7125zM135.60375 69C135.40496 69.0132312 135.221049 69.1099548 135.0975 69.26625 134.889666 69.516088 134.768594 69.826666 134.7525 70.15125 134.72451 70.474588 134.802144 70.7982827 134.97375 71.07375 135.079472 71.258439 135.265293 71.3832438 135.47625 71.41125L182.7675 74.5725C183.82875 74.64375 184.78125 73.665 185.06625 72.3225L135.6375 69 135.60375 69zM143.2125 64.41375L143.00625 64.41375C141.343529 64.3574757 140.03292 62.9786097 140.061061 61.3151747 140.089202 59.6517398 141.445702 58.3179946 143.109375 58.3179946 144.773048 58.3179946 146.129548 59.6517398 146.157689 61.3151747 146.18583 62.9786097 144.875221 64.3574757 143.2125 64.41375zM143.2125 59.4225C142.196661 59.4242289 141.355814 60.2126254 141.28875 61.22625L141.28875 61.22625C141.249179 61.7354314 141.415313 62.2392334 141.75 62.625 142.326652 63.2803095 143.271184 63.4673464 144.054055 63.0812506 144.836926 62.6951549 145.263488 61.8319235 145.094593 60.975517 144.925698 60.1191104 144.20334 59.4824615 143.3325 59.4225L143.2125 59.4225z"></path>
                    <path fill="#646464" fill-rule="nonzero" d="M147.58875 69.81375L137.51625 69.13875 138.10125 60.3975C138.211497 58.5908324 139.280686 56.9815054 140.903432 56.1796974 142.526179 55.3778894 144.454025 55.5063647 145.956026 56.5164116 147.458027 57.5264586 148.304213 59.2634296 148.17375 61.06875L147.58875 69.81375zM138.7125 68.0925L146.5425 68.625 147.0525 61.005C147.145612 59.6063052 146.485457 58.264183 145.320708 57.4841979 144.155959 56.7042128 142.663569 56.6048631 141.405708 57.2235729 140.147846 57.8422827 139.315612 59.0850552 139.2225 60.48375L138.7125 68.0925zM174.4125 55.5825C173.17875 55.5825 172.005 54.5025 171.675 52.9575L171.675 52.9575C171.3 51.2475 172.1325 49.6125 173.51625 49.3125 174.245759 49.1706075 174.999406 49.3819624 175.54875 49.8825 176.14101 50.4016078 176.545638 51.1014697 176.7 51.87375 177.075 53.58375 176.2425 55.21875 174.855 55.51875 174.710386 55.5566691 174.561937 55.5780559 174.4125 55.5825zM172.77375 52.73625C173.01 53.82 173.85375 54.61125 174.61875 54.435 175.38375 54.25875 175.83375 53.2125 175.60125 52.125 175.496754 51.5961648 175.222962 51.1157128 174.82125 50.75625 174.538407 50.4840287 174.14346 50.3616509 173.75625 50.42625 172.9875 50.59125 172.54125 51.64875 172.77375 52.73625L172.77375 52.73625z"></path>
                    <path fill="#0FD2FF" fill-rule="nonzero" d="M149.1675,34.8337596 C148.998678,34.8347397 148.838583,34.7588329 148.7325,34.6275 C148.635,34.51125 139.16625,23.12625 125.6025,27.90375 C125.309444,28.0073034 124.987928,27.8536811 124.884375,27.560625 C124.780822,27.2675689 124.934444,26.9460534 125.2275,26.8425 C139.5525,21.79875 149.505,33.795 149.6025,33.91875 C149.737791,34.0869824 149.764863,34.3178023 149.672172,34.5127742 C149.57948,34.7077462 149.38338,34.8324677 149.1675,34.8337596 L149.1675,34.8337596 Z"></path>
                    <path fill="#646464" fill-rule="nonzero" d="M168.315,49.76625 C168.275073,49.7696787 168.234927,49.7696787 168.195,49.76625 C168.049037,49.7357774 167.921475,49.6478527 167.841056,49.522287 C167.760638,49.3967213 167.734128,49.2440779 167.7675,49.09875 C168.37125,46.30875 169.46625,44.64375 171.02625,44.14125 C172.125,43.78875 173.98125,43.86375 176.5875,46.2225 L176.625,46.25625 C176.773935,46.3557764 176.86784,46.5191512 176.878877,46.6979397 C176.889913,46.8767282 176.816814,47.0504119 176.68125,47.1675 C176.43,47.3775 176.145,47.34 175.83,47.055 C174.10875,45.495 172.52625,44.8425 171.37125,45.21375 C170.21625,45.585 169.38,46.96875 168.86625,49.33875 C168.80251,49.5909552 168.575133,49.7672888 168.315,49.76625 L168.315,49.76625 Z"></path>
                    <path fill="#0082FA" fill-rule="nonzero" d="M120.75,34.3275052 C118.666836,34.3308507 116.945138,32.7037802 116.830849,30.6237509 C116.716559,28.5437215 118.249628,26.7378143 120.320619,26.5129103 C122.391609,26.2880063 124.276601,27.7227216 124.611481,29.7787954 C124.946361,31.8348692 123.614071,33.7935944 121.57875,34.2375 C121.306486,34.2968811 121.028664,34.3270518 120.75,34.3275052 L120.75,34.3275052 Z M120.75,27.6299858 C120.551993,27.6293533 120.354529,27.6507348 120.16125,27.69375 C118.657933,28.0193093 117.702823,29.5014921 118.0275,31.005 C118.33648,32.4342262 119.69775,33.3814401 121.145267,33.1744401 C122.592785,32.9674401 123.634014,31.6766608 123.530033,30.2181189 C123.426053,28.759577 122.212244,27.6295609 120.75,27.6299858 L120.75,27.6299858 Z"></path>
                    <path fill="#C8C8C8" fill-rule="nonzero" d="M139.875,41.16 C139.726558,41.1600599 139.583948,41.1022088 139.4775,40.99875 C139.25816,40.7791368 139.25816,40.4233632 139.4775,40.20375 C139.8075,39.87 140.145,39.54 140.49,39.225 C140.632856,39.062617 140.856162,38.9965203 141.064387,39.0549856 C141.272613,39.113451 141.428877,39.2861229 141.46633,39.4991331 C141.503784,39.7121432 141.415793,39.9277626 141.24,40.05375 C140.91,40.3575 140.58375,40.6725 140.26875,40.99125 C140.164434,41.0965573 140.023199,41.1570867 139.875,41.16 L139.875,41.16 Z"></path>
                    <path fill="#0082FA" fill-rule="nonzero" d="M123.29625,28.7925089 C123.033301,28.7902812 122.806976,28.6061819 122.751265,28.3491925 C122.695554,28.092203 122.825325,27.8309084 123.06375,27.72 C123.78,27.39 124.51125,27.09375 125.2275,26.8425 C125.368219,26.792023 125.523243,26.7996398 125.658336,26.8636682 C125.793429,26.9276967 125.897477,27.0428691 125.9475,27.18375 C126.047854,27.4776606 125.894446,27.7978166 125.6025,27.90375 C124.91625,28.14375 124.21875,28.425 123.5325,28.74375 C123.458026,28.7763422 123.377543,28.7929498 123.29625,28.7925089 Z"></path>
                    <path fill="#646464" fill-rule="nonzero" d="M150.70125 77.88375C150.414021 77.8834738 150.173138 77.6668402 150.1425 77.38125 150.111886 77.0720703 150.336116 76.7959666 150.645 76.7625 151.46431 76.6638212 152.20518 76.2274554 152.68875 75.55875 153.138477 74.8992378 153.260153 74.0696278 153.01875 73.30875 152.9555 73.1101906 153.007207 72.8929338 153.153123 72.7441559 153.299039 72.5953779 153.515251 72.5394611 153.715001 72.5988426 153.914752 72.6582241 154.065305 72.8231722 154.10625 73.0275 154.426921 74.0990106 154.246383 75.2580379 153.615 76.18125 152.944081 77.1201777 151.907532 77.7317552 150.76125 77.865L150.70125 77.88375zM185.70375 72.375L185.59125 72.375C185.445034 72.3451906 185.316656 72.2585037 185.234369 72.1340188 185.152082 72.0095339 185.122632 71.8574536 185.1525 71.71125 185.30051 70.7080927 185.373213 69.6952624 185.37 68.68125 185.369973 68.3714244 185.618952 68.1191036 185.92875 68.115L185.92875 68.115C186.23941 68.115 186.49125 68.3668398 186.49125 68.6775 186.495571 69.7683195 186.41533 70.8578329 186.25125 71.93625 186.192254 72.1915654 185.965786 72.3730505 185.70375 72.375L185.70375 72.375zM140.5425 78C140.480097 77.9992115 140.418163 77.9890998 140.35875 77.97 136.9425 76.8075 137.48625 72.26625 137.5125 72.07125 137.55185 71.7605898 137.83559 71.5406497 138.14625 71.58 138.45691 71.6193503 138.67685 71.9030898 138.6375 72.21375 138.6375 72.25875 138.1875 76.03875 140.73375 76.905 140.994061 76.993599 141.152162 77.257409 141.107559 77.5287426 141.062956 77.8000762 140.828725 77.999393 140.55375 78L140.5425 78z"></path>
                    <path fill="#C8C8C8" fill-rule="nonzero" d="M22.56375 111.94125C22.5275898 111.944859 22.4911602 111.944859 22.455 111.94125 22.1502357 111.879083 21.9526676 111.582731 22.0125 111.2775 22.3410905 109.607261 22.7859226 107.962009 23.34375 106.35375 23.48625 105.94125 23.63625 105.5325 23.79375 105.1275 23.8667661 104.939936 24.0343003 104.805573 24.2332439 104.775024 24.4321876 104.744476 24.6323165 104.822383 24.758244 104.979399 24.8841715 105.136415 24.9167662 105.348686 24.84375 105.53625 24.69 105.91125 24.5475 106.32375 24.40875 106.725 23.866933 108.282928 23.4346304 109.876809 23.115 111.495 23.0599871 111.755446 22.8299427 111.941673 22.56375 111.94125L22.56375 111.94125zM30.6975 95.25C30.4786599 95.2475134 30.2808454 95.11914 30.1894379 94.9202886 30.0980305 94.7214373 30.1293974 94.4877143 30.27 94.32 33.0112712 91.1343404 36.1638876 88.3272508 39.645 85.9725 39.8102719 85.850828 40.0286917 85.8288233 40.2149118 85.9150843 40.4011318 86.0013453 40.5255925 86.1821794 40.5396607 86.3869255 40.553729 86.5916716 40.4551716 86.7878293 40.2825 86.89875 36.8808257 89.2010242 33.8012073 91.9464498 31.125 95.0625 31.0169906 95.1848034 30.860634 95.2533809 30.6975 95.25L30.6975 95.25zM50.88375 81.05625C50.6189709 81.0543554 50.3913628 80.8680543 50.3371783 80.6088717 50.2829938 80.3496891 50.4169054 80.087809 50.65875 79.98 54.5023339 78.3409008 58.4572391 76.9762329 62.49375 75.89625 62.7940548 75.8154784 63.1029784 75.9934452 63.18375 76.29375 63.2645216 76.5940548 63.0865548 76.9029784 62.78625 76.98375 58.8023357 78.0489071 54.8988279 79.3947714 51.105 81.01125 51.0357977 81.0447279 50.9605386 81.0638616 50.88375 81.0675L50.88375 81.05625zM74.82 74.44125C74.5093398 74.4650673 74.2381923 74.2325352 74.214375 73.921875 74.1905578 73.6112148 74.4230898 73.3400673 74.73375 73.31625 78.70125 72.6975 82.8825 72.24375 87.15375 71.9625 87.4644102 71.9417893 87.7330393 72.1768398 87.75375 72.4875 87.7744607 72.7981602 87.5394102 73.0667893 87.22875 73.0875 82.99125 73.365 78.84375 73.81875 74.90625 74.43375L74.82 74.44125zM112.06875 73.2825L112.0275 73.2825C107.835 72.9675 103.665 72.79125 99.63 72.75375 99.3193399 72.75375 99.0675001 72.5019101 99.0675001 72.19125 99.0675001 71.8805899 99.3193399 71.62875 99.63 71.62875L99.63 71.62875C103.69125 71.66625 107.88 71.8425 112.1025 72.16125 112.41316 72.1726409 112.655766 72.4337149 112.644375 72.744375 112.632984 73.0550351 112.37191 73.2976408 112.06125 73.28625L112.06875 73.2825zM130.71375 75.52875L130.62 75.52875C128.5425 75.1875 126.44625 74.87625 124.39125 74.59875 124.190288 74.5719551 124.018887 74.4399837 123.941611 74.2525481 123.864335 74.0651125 123.892925 73.8506887 124.016611 73.6900481 124.140297 73.5294074 124.340288 73.4469551 124.54125 73.47375 126.6075 73.75125 128.715 74.06625 130.80375 74.4075 131.11441 74.4323528 131.346103 74.7043398 131.32125 75.015 131.296397 75.3256602 131.02441 75.5573528 130.71375 75.5325L130.71375 75.52875z"></path>
                    <path fill="#0082FA" fill-rule="nonzero" d="M119.5125 212.71125C117.55125 211.96125 115.57125 211.1775 113.62875 210.37875L114.05625 209.33625C115.99125 210.13125 117.96 210.915 119.91375 211.66125L119.5125 212.71125zM102.2175 205.3575C98.4375 203.58 94.6875 201.6975 91.0725 199.76625L91.605 198.7725C95.20125 200.69625 98.9325 202.5675 102.6975 204.3375L102.2175 205.3575zM80.25 193.59C76.65375 191.40375 73.125 189.12 69.7875 186.79875L70.42875 185.8725C73.755 188.1825 77.25375 190.455 80.83125 192.6225L80.25 193.59zM59.77125 179.35875C56.44875 176.7075 53.26875 173.96625 50.31375 171.21375L51.06375 170.3925C53.99625 173.12625 57.15375 175.845 60.43875 178.4775L59.77125 179.35875zM41.56125 162.3C38.7800196 159.195635 36.1794828 155.934008 33.7725 152.53125L34.69125 151.875C37.0743385 155.242231 39.6485643 158.470029 42.40125 161.5425L41.56125 162.3zM27.31125 141.81C25.4276591 138.078035 23.9323147 134.162495 22.84875 130.125L23.93625 129.84C25.0019664 133.809293 26.4734728 137.658332 28.3275 141.32625L27.31125 141.81zM22.44375 117.66375L21.31875 117.63375C21.3675511 115.492839 21.5996495 113.360043 22.0125 111.25875L23.115 111.4725C22.7175448 113.513702 22.4929986 115.584796 22.44375 117.66375L22.44375 117.66375z"></path>
                    <path fill="#0FD2FF" fill-rule="nonzero" d="M156.18 223.7475L156.05625 223.7475C152.46 222.94875 148.80375 222.0525 145.18125 221.08125 144.986987 221.029 144.835355 220.877081 144.783474 220.682719 144.731592 220.488357 144.787342 220.281081 144.929724 220.138969 145.072105 219.996857 145.279487 219.9415 145.47375 219.99375 149.06625 220.96125 152.70375 221.86875 156.285 222.64875 156.485962 222.670186 156.660222 222.797205 156.742139 222.981962 156.824056 223.166718 156.801184 223.381141 156.682139 223.544462 156.563094 223.707782 156.365962 223.795186 156.165 223.77375L156.18 223.7475zM268.3875 207.57C268.164694 207.570147 267.962801 207.438771 267.872687 207.235002 267.782574 207.031232 267.821227 206.793479 267.97125 206.62875 269.368618 205.093742 270.641399 203.449785 271.7775 201.7125 271.955228 201.476333 272.28542 201.418002 272.533307 201.57898 272.781194 201.739958 272.862209 202.065329 272.71875 202.32375 271.551437 204.109847 270.242207 205.799055 268.80375 207.375 268.699102 207.496313 268.547689 207.567245 268.3875 207.57L268.3875 207.57zM201.99375 229.0425L200.30625 229.0425C199.99559 229.0425 199.74375 228.79066 199.74375 228.48 199.74375 228.16934 199.99559 227.9175 200.30625 227.9175L200.30625 227.9175C204.45375 227.95875 208.55625 227.85 212.48625 227.595 212.79495 227.581953 213.058542 227.815705 213.0825 228.12375 213.092767 228.272631 213.043051 228.419432 212.94443 228.531436 212.84581 228.643441 212.706483 228.711339 212.5575 228.72 209.1375 228.93 205.57875 229.0425 201.99375 229.0425zM224.68875 227.4225C224.37809 227.446317 224.106942 227.213785 224.083125 226.903125 224.059308 226.592465 224.29184 226.321317 224.6025 226.2975 228.615123 225.695267 232.593158 224.881635 236.52 223.86 236.815298 223.79422 237.109733 223.973792 237.186428 224.266445 237.263123 224.559097 237.094604 224.859995 236.805 224.9475 232.841024 225.979336 228.825465 226.801725 224.775 227.41125L224.68875 227.4225zM248.25 221.096284C247.97971 221.099204 247.745537 220.909487 247.692349 220.644466 247.639161 220.379445 247.782001 220.114064 248.0325 220.0125 251.773372 218.472374 255.363683 216.589344 258.7575 214.3875 259.016833 214.23031 259.354091 214.30699 259.519964 214.560857 259.685838 214.814725 259.62061 215.154383 259.3725 215.32875 255.919467 217.563654 252.267767 219.475493 248.46375 221.04 248.397218 221.073493 248.3244 221.092656 248.25 221.096284zM188.0925 228.5175L188.05125 228.5175C185.96625 228.36375 183.84375 228.1725 181.74375 227.95125 181.59494 227.936124 181.458283 227.862352 181.363988 227.746242 181.269693 227.630132 181.225526 227.481247 181.24125 227.3325 181.278491 227.02617 181.552747 226.805102 181.86 226.83375 183.9525 227.05125 186.06 227.2425 188.13375 227.3925 188.44441 227.403891 188.687016 227.664965 188.675625 227.975625 188.664234 228.286285 188.40316 228.528891 188.0925 228.5175L188.0925 228.5175z"></path>
                    <path fill="#646464" fill-rule="nonzero" d="M222.6 110.0775C222.493979 110.076834 222.390187 110.046993 222.3 109.99125 220.545 108.86625 218.7375 107.775 216.92625 106.7025 216.721333 106.618334 216.584899 106.421732 216.577755 106.20032 216.570611 105.978907 216.694088 105.773919 216.893153 105.676718 217.092217 105.579518 217.329796 105.608207 217.5 105.75 219.3225 106.83 221.1375 107.94 222.9 109.05375 223.112346 109.187207 223.210684 109.445123 223.141094 109.686076 223.071505 109.92703 222.850801 110.092804 222.6 110.0925L222.6 110.0775zM278.03625 185.20875L277.99875 185.20875C277.688749 185.18671 277.454444 184.918933 277.47375 184.60875 277.53 183.76125 277.56 182.895 277.56 182.03625 277.54635 178.881856 277.189245 175.738328 276.495 172.66125 276.42769 172.357839 276.619089 172.05731 276.9225 171.99 277.225911 171.92269 277.52644 172.114089 277.59375 172.4175 278.305374 175.570859 278.671284 178.79237 278.685 182.025 278.685 182.91 278.655 183.79875 278.595 184.6725 278.58104 184.971419 278.33549 185.207081 278.03625 185.20875zM273.09375 161.625C272.874732 161.624812 272.675737 161.497514 272.58375 161.29875 270.883119 157.642198 268.899592 154.124007 266.65125 150.77625 266.478316 150.517367 266.547992 150.167309 266.806875 149.994375 267.065758 149.821441 267.415816 149.891117 267.58875 150.15 269.860061 153.54932 271.866001 157.11864 273.58875 160.82625 273.718761 161.110004 273.594644 161.445456 273.31125 161.57625 273.243038 161.60777 273.16889 161.62439 273.09375 161.625L273.09375 161.625zM259.7625 141.318776C259.597068 141.320331 259.439329 141.249006 259.33125 141.12375 256.8075 138.16125 254.01375 135.19125 251.025 132.28875 250.814271 132.070219 250.814967 131.723898 251.026574 131.506216 251.238181 131.288535 251.584343 131.278039 251.80875 131.4825 254.80875 134.4075 257.64375 137.40375 260.19 140.3925 260.390632 140.630055 260.362174 140.984952 260.12625 141.1875 260.024487 141.273151 259.895507 141.31969 259.7625 141.318776zM242.34375 124.3275C242.207001 124.330478 242.073795 124.283856 241.96875 124.19625 238.93125 121.68 235.69875 119.1825 232.3575 116.77875 232.180815 116.667013 232.080671 116.466507 232.097473 116.258132 232.114275 116.049756 232.245251 115.867886 232.437556 115.785902 232.629862 115.703917 232.851771 115.735343 233.01375 115.8675 236.38875 118.28625 239.62875 120.795 242.68875 123.33 242.927698 123.527925 242.961255 123.881955 242.76375 124.12125 242.66003 124.247333 242.506937 124.322513 242.34375 124.3275L242.34375 124.3275zM272.25 202.57875C272.141964 202.580261 272.036025 202.548871 271.94625 202.48875 271.820102 202.408815 271.731492 202.281415 271.700442 202.135338 271.669392 201.98926 271.698522 201.836833 271.78125 201.7125 272.912255 199.97392 273.890895 198.14085 274.70625 196.23375 274.828443 195.947943 275.159193 195.815307 275.445 195.9375 275.730807 196.059693 275.863443 196.390443 275.74125 196.67625 274.906699 198.642083 273.902925 200.531688 272.74125 202.32375 272.633029 202.488441 272.446966 202.585023 272.25 202.57875L272.25 202.57875zM181.125 89.3775C181.055744 89.3778317 180.987045 89.3651097 180.9225 89.34 178.97625 88.59 176.98875 87.84 175.02 87.13875 174.726944 87.0351966 174.573322 86.7136811 174.676875 86.420625 174.780428 86.1275689 175.101944 85.9739466 175.395 86.0775 177.375 86.79 179.37 87.53625 181.32375 88.29375 181.580678 88.3871626 181.732287 88.6527653 181.682074 88.921497 181.631861 89.1902286 181.394574 89.3831657 181.12125 89.3775L181.125 89.3775z"></path>
                    <path fill="#646464" fill-rule="nonzero" d="M187.52625 91.95C187.451724 91.9508936 187.377773 91.9368684 187.30875 91.90875 185.3925 91.10625 183.4275 90.31125 181.46625 89.55 181.176301 89.4371268 181.032752 89.1105745 181.145625 88.820625 181.258498 88.5306756 181.585051 88.3871268 181.875 88.5 183.84375 89.26875 185.82 90.06375 187.74375 90.87 187.884577 90.9277782 187.995976 91.0401645 188.052509 91.1814965 188.109042 91.3228284 188.105881 91.4810383 188.04375 91.62 187.9533 91.8240524 187.749414 91.9540671 187.52625 91.95L187.52625 91.95zM246.59625 183.23625C246.28559 183.262138 246.012763 183.031285 245.986875 182.720625 245.960987 182.409965 246.19184 182.137138 246.5025 182.11125L251.68875 181.245C251.99941 181.193223 252.293223 181.40309 252.345 181.71375 252.396777 182.02441 252.18691 182.318223 251.87625 182.37L246.69 183.23625 246.59625 183.23625z"></path>
                    <path fill="#646464" fill-rule="nonzero" d="M249.6225 185.39625C249.346675 185.396126 249.111632 185.196021 249.0675 184.92375L248.20125 179.7375C248.150509 179.42684 248.361215 179.133866 248.671875 179.083125 248.982535 179.032384 249.275509 179.24309 249.32625 179.55375L250.1925 184.74C250.217464 184.887208 250.182876 185.038302 250.096358 185.15999 250.00984 185.281678 249.87849 185.363976 249.73125 185.38875L249.6225 185.39625zM236.535 68.75625C236.22434 68.7811028 235.952353 68.5494102 235.9275 68.23875 235.902647 67.9280898 236.13434 67.6561028 236.445 67.63125L241.6275 66.765C241.934803 66.7153275 242.224577 66.9230267 242.27625 67.23 242.301157 67.3767695 242.266465 67.5274103 242.179871 67.6485015 242.093277 67.7695927 241.96194 67.8511215 241.815 67.875L236.625 68.74875 236.535 68.75625z"></path>
                    <path fill="#646464" fill-rule="nonzero" d="M239.56125 70.9162501C239.286628 70.9164294 239.05202 70.718281 239.00625 70.4475L238.125 65.25C238.092176 65.0490381 238.169058 64.8458304 238.326684 64.7169232 238.48431 64.588016 238.698734 64.5529935 238.889184 64.6250482 239.079634 64.6971029 239.217176 64.8652881 239.25 65.06625L240.11625 70.24875C240.141214 70.3959582 240.106626 70.5470518 240.020108 70.6687401 239.93359 70.7904284 239.80224 70.8727259 239.655 70.8975L239.56125 70.9162501zM69.75 58.545C69.5490381 58.5617468 69.3544073 58.4700096 69.2394232 58.3043449 69.1244391 58.1386802 69.1065704 57.9242565 69.1925482 57.7418449 69.278526 57.5594334 69.4552881 57.4367468 69.65625 57.42L74.8425 56.55375C75.1498033 56.5040775 75.4395772 56.7117767 75.49125 57.01875 75.5161572 57.1655195 75.4814653 57.3161603 75.394871 57.4372515 75.3082767 57.5583427 75.1769404 57.6398715 75.03 57.66375L69.84375 58.53C69.8131815 58.5385916 69.7817232 58.543625 69.75 58.545L69.75 58.545z"></path>
                    <path fill="#646464" fill-rule="nonzero" d="M72.78375 60.7050001C72.5091281 60.7051794 72.2745203 60.507031 72.22875 60.23625L71.3625 55.05C71.3296762 54.8490381 71.4065577 54.6458304 71.5641839 54.5169232 71.7218101 54.388016 71.9362339 54.3529935 72.1266839 54.4250482 72.3171339 54.4971029 72.4546762 54.6652881 72.4875 54.86625L73.35375 60.04875C73.3787138 60.1959582 73.3441262 60.3470518 73.257608 60.4687401 73.1710897 60.5904284 73.0397402 60.6727259 72.8925 60.6975L72.78375 60.7050001zM90.45375 106.3725C90.1430898 106.397353 89.8711028 106.16566 89.84625 105.855 89.8213972 105.54434 90.0530898 105.272353 90.36375 105.2475L95.55 104.38125C95.8606602 104.330509 96.1536338 104.541215 96.204375 104.851875 96.2551162 105.162535 96.0444102 105.455509 95.73375 105.50625L90.5475 106.3725 90.45375 106.3725z"></path>
                    <path fill="#646464" fill-rule="nonzero" d="M93.48 108.5325C93.2047473 108.530829 92.9705674 108.33146 92.925 108.06L92.05875 102.87375C92.011341 102.567779 92.2184764 102.280462 92.52375 102.22875 92.6706561 102.202787 92.8218292 102.237058 92.9431765 102.323835 93.0645239 102.410613 93.1458269 102.542589 93.16875 102.69L94.035 107.87625C94.0599638 108.023458 94.0253762 108.174552 93.938858 108.29624 93.8523397 108.417928 93.7209902 108.500226 93.57375 108.525L93.48 108.5325zM77.27625 213.825C77.117515 213.82654 76.9658208 213.759576 76.86 213.64125L73.32375 209.74875C73.1489033 209.515863 73.1807177 209.188032 73.3970809 208.99311 73.6134442 208.798188 73.9428067 208.800635 74.15625 208.99875L77.6925 212.89125C77.7928001 213.000985 77.845233 213.146168 77.8381951 213.294669 77.8311571 213.443169 77.7652287 213.582742 77.655 213.6825 77.5515812 213.776626 77.4160655 213.827612 77.27625 213.825L77.27625 213.825z"></path>
                    <path fill="#646464" fill-rule="nonzero" d="M73.56375 213.64875C73.3319602 213.647378 73.1247459 213.503962 73.0418147 213.287511 72.9588835 213.071061 73.0172185 212.825902 73.18875 212.67L77.08125 209.13375C77.3141368 208.958903 77.6419683 208.990718 77.8368902 209.207081 78.031812 209.423444 78.0293651 209.752807 77.83125 209.96625L73.9425 213.5025C73.8386682 213.596391 73.7037376 213.648493 73.56375 213.64875L73.56375 213.64875zM65.43 143.5575C65.1193398 143.582353 64.8473529 143.35066 64.8225001 143.04 64.7976473 142.72934 65.0293399 142.457353 65.34 142.4325L70.52625 141.56625C70.8369102 141.515509 71.1298838 141.726215 71.180625 142.036875 71.2313662 142.347535 71.0206602 142.640509 70.71 142.69125L65.52375 143.5575 65.43 143.5575z"></path>
                    <path fill="#646464" fill-rule="nonzero" d="M68.45625 145.7175C68.1809973 145.715829 67.9468174 145.51646 67.90125 145.245L67.035 140.0625C66.9853275 139.755197 67.1930267 139.465423 67.5 139.41375 67.6469061 139.387787 67.7980792 139.422058 67.9194265 139.508835 68.0407739 139.595613 68.1220769 139.727589 68.145 139.875L69 145.06125C69.0249638 145.208458 68.9903762 145.359552 68.903858 145.48124 68.8173397 145.602928 68.6859902 145.685226 68.53875 145.71L68.45625 145.7175zM194.14125 211.8075C193.83059 211.833388 193.557763 211.602535 193.531875 211.291875 193.505987 210.981215 193.73684 210.708388 194.0475 210.6825L199.23375 209.81625C199.54441 209.764473 199.838223 209.97434 199.89 210.285 199.941777 210.59566 199.73191 210.889473 199.42125 210.94125L194.25 211.8 194.14125 211.8075z"></path>
                    <path fill="#646464" fill-rule="nonzero" d="M197.1675 213.9675C196.892878 213.967679 196.65827 213.769531 196.6125 213.49875L195.75 208.3125C195.716506 208.111538 195.792769 207.907973 195.95006 207.778486 196.107351 207.648998 196.321775 207.613261 196.51256 207.684736 196.703345 207.75621 196.841506 207.924038 196.875 208.125L197.74125 213.31125C197.791075 213.617317 197.585451 213.906528 197.28 213.96L197.1675 213.9675zM224.07375 131.35875C223.76309 131.383603 223.491103 131.15191 223.46625 130.84125 223.441397 130.53059 223.67309 130.258603 223.98375 130.23375L229.17 129.375C229.316906 129.349037 229.468079 129.383308 229.589427 129.470085 229.710774 129.556863 229.792077 129.688839 229.815 129.83625 229.839964 129.983458 229.805376 130.134552 229.718858 130.25624 229.63234 130.377928 229.50099 130.460226 229.35375 130.485L224.1675 131.35125 224.07375 131.35875z"></path>
                    <path fill="#646464" fill-rule="nonzero" d="M227.1,133.51875 C226.825015,133.518355 226.591197,133.317939 226.54875,133.04625 L225.6825,127.875 C225.631759,127.56434 225.842465,127.271366 226.153125,127.220625 C226.463785,127.169884 226.756759,127.38059 226.8075,127.69125 L227.67,132.8775 C227.694964,133.024708 227.660376,133.175802 227.573858,133.29749 C227.48734,133.419178 227.35599,133.501476 227.20875,133.52625 L227.1,133.51875 Z"></path>
                </g>
            </svg>