<svg style="width: 100%;height: 100%;" viewBox="0 0 150 250" fill="none" xmlns="http://www.w3.org/2000/svg"><path d="M4.077 199.698l-1.793 1.406-78.112-98.211-17.042-2.154-31.982-40.212 1.841-16.959-44.325-55.73 1.793-1.406 44.924 56.483-1.848 16.95 30.791 38.715 17.042 2.153 78.711 98.965z" fill="url(#paint0_linear_9822_322277)" fill-opacity=".5"></path><path d="M14.705 189.722l-1.793 1.406L-65.8 92.163l1.832-16.952-30.791-38.715-17.026-2.15-44.924-56.485 1.793-1.406 44.325 55.73 17.033 2.161 31.983 40.212-1.833 16.952 78.112 98.212z" fill="url(#paint1_linear_9822_322277)" fill-opacity=".5"></path><path d="M47.045 164.185l-1.793 1.406-44.325-55.73-17.034-2.16-31.982-40.213 1.832-16.952-78.112-98.211 1.794-1.406 78.71 98.965-1.832 16.952 30.792 38.714 17.026 2.151 44.924 56.484z" fill="url(#paint2_linear_9822_322277)" fill-opacity=".5"></path><path d="M55.323 159.015l-1.793 1.406-44.924-56.484 1.84-16.943-30.792-38.715-17.034-2.16-78.711-98.965 1.794-1.406 78.112 98.212 17.033 2.16L12.83 86.332l-1.832 16.952 44.325 55.731z" fill="url(#paint3_linear_9822_322277)" fill-opacity=".5"></path><path d="M87.67 133.471l-1.793 1.406L7.765 36.666l-17.042-2.153L-41.259-5.7l1.84-16.958-44.324-55.731 1.793-1.406 44.924 56.484-1.848 16.95 30.791 38.714L8.96 34.507 87.67 133.47z" fill="url(#paint4_linear_9822_322277)" fill-opacity=".5"></path><path d="M98.298 123.495l-1.793 1.406-78.711-98.964 1.832-16.953-30.792-38.714-17.026-2.151-44.924-56.484 1.794-1.406 44.325 55.73 17.033 2.16L22.018 8.333l-1.832 16.952 78.112 98.211z" fill="url(#paint5_linear_9822_322277)" fill-opacity=".5"></path><path d="M130.638 97.959l-1.794 1.406-44.325-55.73-17.033-2.161L35.504 1.262l1.832-16.952-78.112-98.212 1.793-1.406 78.711 98.965L37.896.609l30.791 38.715 17.027 2.15 44.924 56.485z" fill="url(#paint6_linear_9822_322277)" fill-opacity=".5"></path><path d="M138.42 93.21l-1.793 1.406-44.924-56.484 1.84-16.943L62.75-17.525l-17.033-2.16-78.711-98.965 1.793-1.406 78.112 98.211 17.033 2.16 31.983 40.212-1.833 16.953 44.325 55.73z" fill="url(#paint7_linear_9822_322277)" fill-opacity=".5"></path><path d="M170.768 67.667l-1.794 1.406L90.862-29.14l-17.041-2.153-31.983-40.212 1.841-16.96-44.325-55.73 1.793-1.406 44.925 56.484-1.849 16.95 30.792 38.715 17.042 2.153 78.711 98.965z" fill="url(#paint8_linear_9822_322277)" fill-opacity=".5"></path><path d="M181.395 57.69l-1.793 1.407-78.711-98.965 1.832-16.952-30.791-38.715-17.026-2.151L9.982-154.17l1.793-1.406L56.1-99.846l17.033 2.16 31.983 40.213-1.833 16.952 78.112 98.212z" fill="url(#paint9_linear_9822_322277)" fill-opacity=".5"></path><path d="M213.735 32.154l-1.793 1.406-44.325-55.73-17.034-2.16-31.982-40.213 1.832-16.952-78.112-98.211 1.794-1.407 78.711 98.965-1.833 16.952 30.792 38.715 17.026 2.151 44.924 56.484z" fill="url(#paint10_linear_9822_322277)" fill-opacity=".5"></path><defs><linearGradient id="paint0_linear_9822_322277" x1="-171.16" y1="-9.164" x2="-3.03" y2="205.271" gradientUnits="userSpaceOnUse"><stop offset=".224" stop-color="#5E5787"></stop><stop offset="1" stop-color="#fff" stop-opacity="0"></stop></linearGradient><linearGradient id="paint1_linear_9822_322277" x1="-151.095" y1="-26.54" x2="17.035" y2="187.895" gradientUnits="userSpaceOnUse"><stop offset=".224" stop-color="#5E5787"></stop><stop offset="1" stop-color="#fff" stop-opacity="0"></stop></linearGradient><linearGradient id="paint2_linear_9822_322277" x1="-128.188" y1="-44.68" x2="39.942" y2="169.754" gradientUnits="userSpaceOnUse"><stop offset=".224" stop-color="#5E5787"></stop><stop offset="1" stop-color="#fff" stop-opacity="0"></stop></linearGradient><linearGradient id="paint3_linear_9822_322277" x1="-110.477" y1="-57.247" x2="57.653" y2="157.188" gradientUnits="userSpaceOnUse"><stop offset=".224" stop-color="#5E5787"></stop><stop offset="1" stop-color="#fff" stop-opacity="0"></stop></linearGradient><linearGradient id="paint4_linear_9822_322277" x1="-87.567" y1="-75.391" x2="80.563" y2="139.044" gradientUnits="userSpaceOnUse"><stop offset=".224" stop-color="#5E5787"></stop><stop offset="1" stop-color="#fff" stop-opacity="0"></stop></linearGradient><linearGradient id="paint5_linear_9822_322277" x1="-67.503" y1="-92.766" x2="100.628" y2="121.668" gradientUnits="userSpaceOnUse"><stop offset=".224" stop-color="#5E5787"></stop><stop offset="1" stop-color="#fff" stop-opacity="0"></stop></linearGradient><linearGradient id="paint6_linear_9822_322277" x1="-44.596" y1="-110.907" x2="123.535" y2="103.528" gradientUnits="userSpaceOnUse"><stop offset=".224" stop-color="#5E5787"></stop><stop offset="1" stop-color="#fff" stop-opacity="0"></stop></linearGradient><linearGradient id="paint7_linear_9822_322277" x1="-27.38" y1="-123.051" x2="140.75" y2="91.383" gradientUnits="userSpaceOnUse"><stop offset=".224" stop-color="#5E5787"></stop><stop offset="1" stop-color="#fff" stop-opacity="0"></stop></linearGradient><linearGradient id="paint8_linear_9822_322277" x1="-4.47" y1="-141.195" x2="163.66" y2="73.239" gradientUnits="userSpaceOnUse"><stop offset=".224" stop-color="#5E5787"></stop><stop offset="1" stop-color="#fff" stop-opacity="0"></stop></linearGradient><linearGradient id="paint9_linear_9822_322277" x1="15.595" y1="-158.571" x2="183.725" y2="55.864" gradientUnits="userSpaceOnUse"><stop offset=".224" stop-color="#5E5787"></stop><stop offset="1" stop-color="#fff" stop-opacity="0"></stop></linearGradient><linearGradient id="paint10_linear_9822_322277" x1="38.502" y1="-176.712" x2="206.632" y2="37.723" gradientUnits="userSpaceOnUse"><stop offset=".224" stop-color="#5E5787"></stop><stop offset="1" stop-color="#fff" stop-opacity="0"></stop></linearGradient></defs></svg>